<svg width="35" height="35" viewBox="0 0 35 35" fill="none" xmlns="http://www.w3.org/2000/svg">
<g clip-path="url(#clip0_365_11205)">
<path d="M17.5 26.8487C16.417 26.8487 15.3784 27.2797 14.6126 28.0468C13.8469 28.814 13.4167 29.8544 13.4167 30.9393C13.6039 36.3539 21.3967 36.3528 21.5833 30.9393C21.5833 29.8544 21.1531 28.814 20.3874 28.0468C19.6216 27.2797 18.583 26.8487 17.5 26.8487ZM19.5621 33.0056C16.7539 35.6527 12.7948 31.6849 15.4379 28.8736C18.2461 26.2258 22.2052 30.1942 19.5621 33.0056ZM30.9167 25.0951C29.8337 25.0951 28.7951 25.5261 28.0293 26.2932C27.2635 27.0603 26.8333 28.1007 26.8333 29.1856C27.0206 34.6003 34.8133 34.5991 35 29.1856C35 28.1007 34.5698 27.0603 33.804 26.2932C33.0382 25.5261 31.9996 25.0951 30.9167 25.0951ZM32.9787 31.2519C30.1706 33.899 26.2115 29.9312 28.8546 27.1199C31.6627 24.4722 35.6218 28.4405 32.9787 31.2519ZM4.08333 25.0951C3.00037 25.0951 1.96175 25.5261 1.19598 26.2932C0.430207 27.0603 0 28.1007 0 29.1856C0.18725 34.6003 7.98 34.5991 8.16667 29.1856C8.16667 28.1007 7.73646 27.0603 6.97069 26.2932C6.20491 25.5261 5.1663 25.0951 4.08333 25.0951ZM6.14542 31.2519C3.33725 33.899 -0.621833 29.9312 2.02125 27.1199C4.82942 24.4722 8.7885 28.4405 6.14542 31.2519ZM21.875 10.1939C26.5008 10.0508 26.5002 3.32481 21.875 3.18164C17.2492 3.32539 17.2498 10.0514 21.875 10.1939ZM20.2253 5.03523C22.4537 2.90933 25.6468 6.10869 23.5247 8.34094C21.2963 10.4668 18.1032 7.26748 20.2253 5.03523Z" fill="#1D3278"/>
<path d="M16.9036 23.1186V24.8759C16.9036 25.0294 16.9664 25.1766 17.0783 25.2851C17.1902 25.3936 17.342 25.4545 17.5002 25.4545C17.6584 25.4545 17.8101 25.3936 17.922 25.2851C18.0339 25.1766 18.0968 25.0294 18.0968 24.8759V23.1105C20.7865 22.9734 23.3233 21.8552 25.1986 19.9801L28.3581 24.0658C28.4531 24.1886 28.5944 24.2698 28.751 24.2915C28.9077 24.3132 29.0668 24.2736 29.1934 24.1815C29.3199 24.0895 29.4036 23.9524 29.426 23.8005C29.4484 23.6485 29.4076 23.4942 29.3127 23.3715L25.9956 19.082C27.0419 17.7646 27.7483 16.2237 28.0558 14.5877C28.3633 12.9517 28.263 11.2682 27.7633 9.67743C32.1936 2.86225 21.8344 -3.60575 16.7664 2.33974C8.3097 2.75346 3.75294 12.7546 9.00114 19.0866L5.68768 23.3715C5.59274 23.4942 5.55198 23.6485 5.57436 23.8005C5.59673 23.9524 5.68042 24.0895 5.807 24.1815C5.86967 24.2271 5.941 24.2603 6.01689 24.2792C6.09278 24.298 6.17177 24.3022 6.24932 24.2915C6.40596 24.2698 6.54729 24.1886 6.64223 24.0658L9.80237 19.9795C11.676 21.8578 14.2128 22.9792 16.9036 23.1186ZM17.5002 21.9827C15.8899 21.9852 14.3057 21.5882 12.8981 20.8295C13.5907 20.1785 14.4564 19.5166 14.5172 18.5109C14.5017 17.2281 14.5984 16.3329 16.1626 16.7576C17.1816 17.0024 17.4799 17.5938 18.0872 18.3454C18.2843 18.6057 18.5421 18.8171 18.8394 18.9624C19.1368 19.1077 19.4653 19.1828 19.7982 19.1815C20.405 19.1833 21.1179 18.9061 21.7372 18.9391C22.5123 18.9199 23.2736 19.1397 23.9117 19.5669C22.1619 21.1225 19.8738 21.985 17.5002 21.9827ZM21.9746 1.1518C22.7189 1.15165 23.456 1.29373 24.1437 1.56993C24.8314 1.84613 25.4562 2.25103 25.9826 2.76151C26.5089 3.27199 26.9263 3.87804 27.2111 4.54504C27.4959 5.21204 27.6424 5.92692 27.6422 6.64885C27.3427 9.53856 24.0209 12.4115 21.9746 14.2753C20.2952 12.7951 16.4472 9.3534 16.307 6.64885C16.309 5.19155 16.9068 3.79451 17.9693 2.76404C19.0317 1.73358 20.4721 1.15379 21.9746 1.1518ZM9.35433 7.89986L13.1039 11.1703C13.1368 11.1986 13.1609 11.2352 13.1736 11.276C13.1863 11.3169 13.187 11.3603 13.1758 11.4015C13.1645 11.4427 13.1417 11.4801 13.1098 11.5094C13.078 11.5388 13.0383 11.559 12.9953 11.5678C11.6228 12.0699 10.4805 13.0314 9.77492 14.2788C9.50688 14.9763 9.13177 15.6306 8.66228 16.2195C8.10364 14.8759 7.87534 13.4245 7.99546 11.9804C8.11558 10.5363 8.58083 9.13926 9.35433 7.89986ZM9.25768 17.3652C9.96421 16.5558 10.5222 15.6347 10.9073 14.6421C11.2909 14.0769 11.7831 13.5885 12.357 13.2036C12.6231 12.9959 12.9189 12.8267 13.2351 12.7014C13.493 12.6477 13.7306 12.5262 13.922 12.3502C14.1134 12.1742 14.2511 11.9506 14.3202 11.7037C14.3892 11.4568 14.3868 11.1963 14.3133 10.9506C14.2397 10.705 14.0979 10.4837 13.9033 10.311C13.9033 10.3081 10.0553 6.95668 10.0553 6.95437C11.5085 5.18326 13.5816 3.99127 15.881 3.60464C15.3426 4.54282 15.0852 5.60824 15.1378 6.68075C15.1904 7.75325 15.5509 8.79016 16.1787 9.67454C17.2389 11.5412 20.4008 14.5652 21.594 15.4846C21.701 15.5706 21.8356 15.6177 21.9746 15.6177C22.1136 15.6177 22.2482 15.5706 22.3552 15.4846C24.0033 14.1179 25.5131 12.6017 26.8643 10.9568C27.1398 12.3244 27.0923 13.7348 26.7253 15.082C26.3583 16.4293 25.6813 17.6783 24.7452 18.7354C24.12 18.289 23.3985 17.9863 22.635 17.8502C21.8715 17.7141 21.0861 17.7481 20.3382 17.9496C20.0734 18.06 19.7753 18.0692 19.5039 17.9753C19.2324 17.8814 19.0077 17.6913 18.8747 17.4433C18.628 17.0932 18.349 16.7655 18.0413 16.4643C17.0384 15.48 14.4516 14.9181 13.6659 16.4776C13.3874 17.1193 13.2703 17.816 13.324 18.5103C13.3103 18.6113 13.2721 18.7077 13.2125 18.7915C12.8286 19.3073 12.376 19.7715 11.8666 20.1722C10.8052 19.4224 9.91662 18.4668 9.25768 17.3652Z" fill="#1D3278"/>
</g>
<defs>
<clipPath id="clip0_365_11205">
<rect width="35" height="35" fill="white"/>
</clipPath>
</defs>
</svg>
