<svg width="35" height="35" viewBox="0 0 35 35" fill="none" xmlns="http://www.w3.org/2000/svg">
<g clip-path="url(#clip0_365_11208)">
<path d="M34.662 20.5823L30.9022 19.2151V1.87988C30.9015 1.38188 30.7035 0.904458 30.3516 0.552127C29.9996 0.199795 29.5224 0.00126543 29.0244 1.56603e-07H13.9854C13.918 -5.2566e-05 13.8514 0.0132075 13.7892 0.0390175C13.727 0.0648275 13.6705 0.102678 13.623 0.150391L8.1543 5.61914C8.10658 5.66664 8.06873 5.7231 8.04292 5.78528C8.01711 5.84745 8.00385 5.91412 8.00391 5.98145V30.3857C8.00463 30.8841 8.20292 31.3618 8.55531 31.7142C8.9077 32.0666 9.38544 32.2649 9.88379 32.2656H23.8674C25.0124 33.5783 26.5197 34.5233 28.2 34.9822C28.2882 35.0059 28.3811 35.0059 28.4693 34.9822C30.3433 34.4678 31.9968 33.353 33.1764 31.8087C34.356 30.2644 34.9965 28.3758 34.9997 26.4325V21.0643C34.9998 20.959 34.9674 20.8562 34.907 20.7699C34.8466 20.6837 34.761 20.6182 34.662 20.5823ZM13.4706 1.75068V4.61426C13.4702 4.84042 13.3804 5.05724 13.2207 5.21735C13.0609 5.37747 12.8443 5.46785 12.6182 5.46875H9.75459L13.4706 1.75068ZM9.88379 31.2402C9.65727 31.2399 9.44014 31.1497 9.27997 30.9896C9.1198 30.8294 9.02966 30.6123 9.0293 30.3857V6.49414H12.6182C13.1165 6.49342 13.5943 6.29513 13.9466 5.94274C14.299 5.59035 14.4973 5.11261 14.498 4.61426V1.02539H29.0244C29.2509 1.02575 29.4681 1.1159 29.6282 1.27607C29.7884 1.43624 29.8785 1.65337 29.8789 1.87988V18.8426L28.5117 18.3449C28.3987 18.3039 28.2748 18.3039 28.1617 18.3449L22.0094 20.5823C21.9104 20.6182 21.8248 20.6837 21.7644 20.7699C21.7039 20.8562 21.6716 20.959 21.6717 21.0643V26.4325C21.6715 28.1387 22.1651 29.8084 23.0929 31.2402H9.88379ZM33.9743 26.4325C33.9707 28.1264 33.4196 29.7738 32.4033 31.1289C31.387 32.484 29.9598 33.4743 28.3347 33.9521C26.7095 33.4743 25.2824 32.484 24.266 31.1289C23.2497 29.7738 22.6986 28.1264 22.695 26.4325V21.4231L28.3347 19.3724L33.9743 21.4231V26.4325Z" fill="#1D3278"/>
<path d="M25.9663 26.3785C25.8709 26.2815 25.741 26.2264 25.6049 26.2252C25.4689 26.2241 25.338 26.277 25.241 26.3724C25.144 26.4677 25.0889 26.5977 25.0877 26.7337C25.0866 26.8698 25.1395 27.0007 25.2349 27.0977L27.002 28.8962C27.0497 28.9447 27.1067 28.9832 27.1694 29.0095C27.2322 29.0358 27.2996 29.0493 27.3677 29.0493C27.4357 29.0493 27.5031 29.0358 27.5659 29.0095C27.6287 28.9832 27.6856 28.9447 27.7334 28.8962L31.4323 25.1364C31.5277 25.0394 31.5806 24.9085 31.5795 24.7725C31.5783 24.6365 31.5232 24.5065 31.4262 24.4111C31.3292 24.3158 31.1983 24.2628 31.0623 24.264C30.9262 24.2652 30.7962 24.3203 30.7009 24.4173L27.3677 27.8059L25.9663 26.3785ZM20.138 15.0705H11.764V13.7717C11.764 13.6357 11.7099 13.5053 11.6138 13.4092C11.5177 13.313 11.3872 13.259 11.2513 13.259C11.1153 13.259 10.9849 13.313 10.8887 13.4092C10.7926 13.5053 10.7386 13.6357 10.7386 13.7717V29.0186C10.7386 29.1545 10.7926 29.2849 10.8887 29.3811C10.9849 29.4772 11.1153 29.5313 11.2513 29.5313C11.3872 29.5313 11.5177 29.4772 11.6138 29.3811C11.7099 29.2849 11.764 29.1545 11.764 29.0186V27.7197H16.0364C16.1724 27.7197 16.3028 27.6657 16.399 27.5696C16.4951 27.4734 16.5491 27.343 16.5491 27.207V25.1563C16.5491 25.0203 16.4951 24.8899 16.399 24.7937C16.3028 24.6976 16.1724 24.6436 16.0364 24.6436H11.764V22.9346H18.0872C18.2232 22.9346 18.3536 22.8806 18.4497 22.7844C18.5459 22.6883 18.5999 22.5579 18.5999 22.4219V20.3711C18.5999 20.2351 18.5459 20.1047 18.4497 20.0086C18.3536 19.9124 18.2232 19.8584 18.0872 19.8584H11.764V18.1494H20.138C20.274 18.1494 20.4044 18.0954 20.5005 17.9993C20.5967 17.9031 20.6507 17.7727 20.6507 17.6367V15.5859C20.651 15.5184 20.638 15.4514 20.6124 15.3889C20.5868 15.3264 20.5491 15.2695 20.5015 15.2216C20.4538 15.1737 20.3972 15.1357 20.3348 15.1098C20.2724 15.0839 20.2055 15.0705 20.138 15.0705ZM15.5237 25.6662V26.6916H11.764V25.6662H15.5237ZM17.5745 20.8811V21.9064H11.764V20.8811H17.5745ZM19.6253 17.1213H11.764V16.0959H19.6253V17.1213ZM24.7933 7.86133H26.2903C26.517 7.86133 26.7343 7.95135 26.8945 8.1116C27.0548 8.27185 27.1448 8.4892 27.1448 8.71582C27.1448 8.94245 27.0548 9.15979 26.8945 9.32004C26.7343 9.48029 26.517 9.57031 26.2903 9.57031H23.8492C23.7132 9.57031 23.5828 9.62433 23.4867 9.72048C23.3905 9.81663 23.3365 9.94703 23.3365 10.083C23.3365 10.219 23.3905 10.3494 23.4867 10.4455C23.5828 10.5417 23.7132 10.5957 23.8492 10.5957H24.1473V11.4502C24.1473 11.5862 24.2013 11.7166 24.2974 11.8127C24.3936 11.9089 24.524 11.9629 24.66 11.9629C24.7959 11.9629 24.9263 11.9089 25.0225 11.8127C25.1186 11.7166 25.1727 11.5862 25.1727 11.4502V10.5957H25.9082V11.4502C25.9082 11.5862 25.9622 11.7166 26.0584 11.8127C26.1545 11.9089 26.2849 11.9629 26.4209 11.9629C26.5569 11.9629 26.6873 11.9089 26.7834 11.8127C26.8796 11.7166 26.9336 11.5862 26.9336 11.4502V10.4815C27.3484 10.33 27.6966 10.0373 27.9171 9.65467C28.1377 9.27208 28.2165 8.82405 28.1398 8.38916C28.063 7.95427 27.8356 7.56028 27.4975 7.27627C27.1593 6.99226 26.7319 6.83637 26.2903 6.83594H24.7933C24.5666 6.83594 24.3493 6.74591 24.189 6.58566C24.0288 6.42541 23.9388 6.20807 23.9388 5.98145C23.9388 5.75482 24.0288 5.53748 24.189 5.37723C24.3493 5.21698 24.5666 5.12695 24.7933 5.12695H27.2344C27.3703 5.12695 27.5008 5.07294 27.5969 4.97679C27.6931 4.88064 27.7471 4.75023 27.7471 4.61426C27.7471 4.47828 27.6931 4.34788 27.5969 4.25173C27.5008 4.15558 27.3703 4.10156 27.2344 4.10156H26.9336V3.24707C26.9336 3.1111 26.8796 2.98069 26.7834 2.88454C26.6873 2.78839 26.5569 2.73438 26.4209 2.73438C26.2849 2.73438 26.1545 2.78839 26.0584 2.88454C25.9622 2.98069 25.9082 3.1111 25.9082 3.24707V4.10156H25.1699V3.24707C25.1699 3.1111 25.1159 2.98069 25.0198 2.88454C24.9236 2.78839 24.7932 2.73438 24.6572 2.73438C24.5213 2.73438 24.3908 2.78839 24.2947 2.88454C24.1985 2.98069 24.1445 3.1111 24.1445 3.24707V4.21572C23.7293 4.36743 23.3808 4.66062 23.1603 5.04378C22.9398 5.42694 22.8614 5.87556 22.9388 6.3108C23.0163 6.74604 23.2446 7.14006 23.5838 7.42363C23.9229 7.7072 24.3512 7.86218 24.7933 7.86133ZM11.2513 11.5473H18.0872C18.2232 11.5473 18.3536 11.4933 18.4497 11.3971C18.5459 11.301 18.5999 11.1705 18.5999 11.0346C18.5999 10.8986 18.5459 10.7682 18.4497 10.672C18.3536 10.5759 18.2232 10.5219 18.0872 10.5219H11.2513C11.1153 10.5219 10.9849 10.5759 10.8887 10.672C10.7926 10.7682 10.7386 10.8986 10.7386 11.0346C10.7386 11.1705 10.7926 11.301 10.8887 11.3971C10.9849 11.4933 11.1153 11.5473 11.2513 11.5473ZM20.138 8.47109H11.2513C11.1153 8.47109 10.9849 8.52511 10.8887 8.62126C10.7926 8.71741 10.7386 8.84781 10.7386 8.98379C10.7386 9.11976 10.7926 9.25017 10.8887 9.34632C10.9849 9.44247 11.1153 9.49649 11.2513 9.49649H20.138C20.274 9.49649 20.4044 9.44247 20.5005 9.34632C20.5967 9.25017 20.6507 9.11976 20.6507 8.98379C20.6507 8.84781 20.5967 8.71741 20.5005 8.62126C20.4044 8.52511 20.274 8.47109 20.138 8.47109ZM5.46875 6.27197V4.05029C5.46875 3.64237 5.3067 3.25115 5.01826 2.9627C4.72981 2.67425 4.33859 2.51221 3.93066 2.51221C3.52274 2.51221 3.13152 2.67425 2.84307 2.9627C2.55463 3.25115 2.39258 3.64237 2.39258 4.05029V6.27197C2.2566 6.27197 2.1262 6.32599 2.03005 6.42214C1.9339 6.51829 1.87988 6.64869 1.87988 6.78467V8.32275H1.19629C0.879125 8.32312 0.575054 8.44927 0.350785 8.67354C0.126515 8.89781 0.000361854 9.20188 0 9.51904L0 14.3042C0 14.4402 0.054016 14.5706 0.150165 14.6667C0.246314 14.7629 0.37672 14.8169 0.512695 14.8169C0.648671 14.8169 0.779077 14.7629 0.875226 14.6667C0.971375 14.5706 1.02539 14.4402 1.02539 14.3042V9.51904C1.02539 9.47372 1.0434 9.43025 1.07545 9.3982C1.1075 9.36615 1.15096 9.34815 1.19629 9.34815H1.87988V19.773C1.88004 19.8788 1.91298 19.9821 1.97418 20.0685C2.03538 20.1549 2.12184 20.2203 2.22168 20.2556V27.5488C2.22129 29.1948 2.65769 30.8113 3.48633 32.2335C3.53128 32.3116 3.59602 32.3765 3.67403 32.4216C3.75204 32.4667 3.84056 32.4904 3.93066 32.4904C4.02077 32.4904 4.10929 32.4667 4.1873 32.4216C4.2653 32.3765 4.33005 32.3116 4.375 32.2335C5.20363 30.8113 5.64004 29.1948 5.63965 27.5488V20.2556C5.73949 20.2203 5.82594 20.1549 5.88715 20.0685C5.94835 19.9821 5.98129 19.8788 5.98145 19.773V6.78467C5.98145 6.64869 5.92743 6.51829 5.83128 6.42214C5.73513 6.32599 5.60473 6.27197 5.46875 6.27197ZM2.90527 19.2603V7.29736H4.95605V19.2603H2.90527ZM3.41797 4.05029C3.41797 3.91432 3.47198 3.78391 3.56813 3.68776C3.66428 3.59161 3.79469 3.5376 3.93066 3.5376C4.06664 3.5376 4.19705 3.59161 4.29319 3.68776C4.38934 3.78391 4.44336 3.91432 4.44336 4.05029V6.27197H3.41797V4.05029ZM3.93066 30.8417C3.47988 29.8024 3.24721 28.6817 3.24707 27.5488V20.2856H4.61426V27.5488C4.61412 28.6817 4.38145 29.8024 3.93066 30.8417Z" fill="#1D3278"/>
</g>
<defs>
<clipPath id="clip0_365_11208">
<rect width="35" height="35" fill="white"/>
</clipPath>
</defs>
</svg>
