<svg width="35" height="35" viewBox="0 0 35 35" fill="none" xmlns="http://www.w3.org/2000/svg">
<path d="M34.3518 28.1691H0.648148C0.29037 28.1691 0 28.4513 0 28.8004C0 29.1494 0.29037 29.4316 0.648148 29.4316H34.3518C34.7103 29.4316 35 29.1494 35 28.8004C35 28.4513 34.7103 28.1691 34.3518 28.1691ZM3.24074 26.9067H31.7593C32.1177 26.9067 32.4074 26.6245 32.4074 26.2755C32.4074 25.9264 32.1177 25.6442 31.7593 25.6442H31.0781C30.7469 18.8403 25.1345 13.3745 18.1481 13.0519V11.7573H21.3889C21.7473 11.7573 22.037 11.4745 22.037 11.1261C22.037 10.7776 21.7473 10.4949 21.3889 10.4949H13.6111C13.2533 10.4949 12.963 10.7776 12.963 11.1261C12.963 11.4745 13.2533 11.7573 13.6111 11.7573H16.8519V13.0519C9.86481 13.3745 4.25315 18.8403 3.92194 25.6442H3.24074C2.88296 25.6442 2.59259 25.9264 2.59259 26.2755C2.59259 26.6245 2.88296 26.9067 3.24074 26.9067ZM17.5 14.2822C24.0716 14.2822 29.4421 19.3251 29.7818 25.6442H5.21824C5.55852 19.3251 10.9284 14.2822 17.5 14.2822ZM12.9325 8.34932C13.0362 8.59235 13.2773 8.73942 13.5314 8.73942C13.6137 8.73942 13.698 8.72364 13.779 8.69082C14.1095 8.55763 14.2664 8.18836 14.1296 7.86581L12.6415 4.36693C12.5047 4.045 12.1256 3.89162 11.7944 4.02543C11.4638 4.15862 11.3069 4.52789 11.4437 4.85044L12.9325 8.34932ZM27.0816 14.2052C27.1645 14.2052 27.2488 14.1894 27.3298 14.1566L30.9225 12.7073C31.2531 12.5741 31.4099 12.2048 31.2731 11.8823C31.1364 11.5597 30.7553 11.4082 30.426 11.5408L26.8333 12.9907C26.5028 13.1239 26.3459 13.4932 26.4827 13.8157C26.5864 14.0588 26.8281 14.2052 27.0816 14.2052ZM21.2204 8.69082C21.3014 8.72364 21.3856 8.73942 21.4686 8.73942C21.7227 8.73942 21.9644 8.59235 22.0675 8.34932L23.5563 4.84981C23.6931 4.52789 23.5362 4.15862 23.2056 4.0248C22.8764 3.89288 22.4953 4.04374 22.3585 4.3663L20.8697 7.86581C20.733 8.18836 20.8898 8.55763 21.2204 8.69082ZM4.07815 12.7067L7.67148 14.1566C7.7525 14.1894 7.83676 14.2052 7.91907 14.2052C8.1738 14.2052 8.41491 14.0581 8.51796 13.8151C8.65472 13.4932 8.49787 13.1239 8.16731 12.9901L4.57398 11.5402C4.24213 11.407 3.86426 11.5597 3.72685 11.8817C3.59074 12.2042 3.74759 12.5735 4.07815 12.7067Z" fill="#1D3278"/>
</svg>
