<svg width="35" height="35" viewBox="0 0 35 35" fill="none" xmlns="http://www.w3.org/2000/svg">
<g clip-path="url(#clip0_365_11179)">
<path d="M32.069 17.952C31.9238 17.8083 31.7468 17.7008 31.5524 17.6381C31.358 17.5754 31.1515 17.5593 30.9497 17.5911L29.2398 11.1927L32.3169 8.29421C32.9264 7.71647 33.4018 7.01208 33.7096 6.23067C34.8971 3.17218 34.7468 3.8164 34.9966 1.214C35.0116 1.04841 34.9901 0.881525 34.9335 0.725176C34.8769 0.568826 34.7866 0.426834 34.669 0.309256C34.5515 0.191678 34.4095 0.10139 34.2531 0.0447878C34.0968 -0.0118148 33.9299 -0.033348 33.7643 -0.0182867C31.1809 0.228901 31.8141 0.0779632 28.7476 1.26869C27.9653 1.57468 27.2605 2.05033 26.6841 2.6614L23.7638 5.76401L17.3836 4.0614C17.422 3.85479 17.4095 3.64193 17.3473 3.44121C17.285 3.24048 17.1749 3.05793 17.0263 2.90932L14.5034 0.390047C14.2595 0.146663 13.9291 0.00996768 13.5846 0.00996768C13.2401 0.00996768 12.9097 0.146663 12.6659 0.390047L10.7591 2.29682L4.39346 0.597859C4.33192 0.581753 4.26724 0.582028 4.20584 0.598657C4.14444 0.615286 4.08846 0.64769 4.04346 0.692651L1.93981 2.7963C1.89955 2.83666 1.86931 2.8859 1.85153 2.94007C1.83375 2.99424 1.82892 3.05183 1.83743 3.1082C1.84594 3.16457 1.86755 3.21817 1.90053 3.26467C1.9335 3.31118 1.97693 3.3493 2.02731 3.37598C5.71252 5.29515 4.54914 4.68848 7.18252 6.06296C7.10608 6.2926 7.09492 6.53895 7.15028 6.77456C7.20564 7.01017 7.32535 7.22578 7.49606 7.39734L10.0153 9.91661C10.1356 10.038 10.2787 10.1344 10.4364 10.2001C10.5941 10.2659 10.7632 10.2997 10.9341 10.2997C11.1049 10.2997 11.2741 10.2659 11.4318 10.2001C11.5895 10.1344 11.7326 10.038 11.8528 9.91661L12.7862 8.98328C14.1847 9.71244 13.9164 9.55567 13.9528 9.59213C14.0063 9.64718 14.0771 9.68198 14.1534 9.69057C14.1898 9.72703 14.1092 9.66942 18.1164 11.7614L10.832 19.4979L2.02002 16.9713C1.95738 16.9544 1.89141 16.9543 1.82871 16.9709C1.766 16.9876 1.70877 17.0204 1.66273 17.0661L0.10596 18.6192C0.0689003 18.6562 0.0402514 18.7008 0.0219643 18.7499C0.00367723 18.799 -0.00381865 18.8514 -1.29747e-05 18.9037C0.0037927 18.9559 0.0188105 19.0067 0.0440181 19.0526C0.0692257 19.0985 0.104031 19.1385 0.146065 19.1697L7.29919 24.4854L7.0695 25.1781C6.99952 25.3857 6.98907 25.6088 7.03933 25.8221C7.08958 26.0353 7.19855 26.2303 7.35388 26.3848L8.59346 27.6244C8.74786 27.78 8.94281 27.8891 9.15614 27.9394C9.36947 27.9896 9.59262 27.979 9.80023 27.9088L10.5039 27.6791L15.8523 34.876C15.8838 34.9177 15.9238 34.9522 15.9697 34.9772C16.0156 35.0022 16.0663 35.0171 16.1185 35.0209C16.1706 35.0247 16.2229 35.0173 16.272 34.9992C16.321 34.9812 16.3656 34.9528 16.4028 34.9161L17.956 33.3593C18.0024 33.3138 18.0357 33.2566 18.0524 33.1937C18.0691 33.1308 18.0685 33.0646 18.0508 33.002L15.506 24.1244L23.2351 16.8473C23.8717 18.0694 25.3738 20.9504 26.0096 22.1739L25.0617 23.1255C24.8183 23.3693 24.6816 23.6997 24.6816 24.0442C24.6816 24.3887 24.8183 24.7191 25.0617 24.963L27.581 27.4822C27.7547 27.6555 27.974 27.776 28.2134 27.8295C28.4529 27.8831 28.7026 27.8676 28.9336 27.7848C30.343 30.489 29.716 29.2855 31.6497 32.9984C31.6764 33.0488 31.7145 33.0922 31.761 33.1252C31.8075 33.1581 31.8611 33.1798 31.9175 33.1883C31.9739 33.1968 32.0315 33.1919 32.0856 33.1742C32.1398 33.1564 32.189 33.1261 32.2294 33.0859L34.333 30.9822C34.378 30.9372 34.4104 30.8813 34.427 30.8199C34.4437 30.7585 34.4439 30.6938 34.4278 30.6322L32.7106 24.19L34.5882 22.3124C34.8316 22.0686 34.9683 21.7382 34.9683 21.3937C34.9683 21.0492 34.8316 20.7188 34.5882 20.4749L32.069 17.952ZM13.1836 0.904109C13.2913 0.798954 13.4359 0.740091 13.5864 0.740091C13.737 0.740091 13.8816 0.798954 13.9893 0.904109L16.5086 3.42703C16.5675 3.4841 16.6129 3.55372 16.6413 3.63072C16.6697 3.70772 16.6804 3.79012 16.6726 3.87182L11.5758 2.51192L13.1836 0.904109ZM2.80752 2.96036L4.41169 1.35619C15.5253 4.32135 7.37174 2.14843 23.195 6.36921L21.1716 8.51661C14.5037 6.74182 10.669 5.71114 5.39606 4.30932L2.80752 2.96036ZM11.3388 9.40255C11.2299 9.50552 11.0858 9.5629 10.9359 9.5629C10.7861 9.5629 10.6419 9.50552 10.533 9.40255L8.01013 6.88328C7.94904 6.82172 7.90284 6.74701 7.87504 6.66487C7.84723 6.58273 7.83857 6.49532 7.84971 6.40932L12.1117 8.62963L11.3388 9.40255ZM8.36377 5.85515C16.8928 8.13234 13.0738 7.10895 15.3164 7.71088L14.1534 8.8739C5.31257 4.25791 9.63143 6.51578 8.36377 5.85515ZM14.8315 9.22755L16.1294 7.92598L20.6028 9.11817L18.6341 11.2109L14.8315 9.22755ZM0.922627 18.838L2.02731 17.7333L10.2669 20.0958C8.84247 21.611 8.05351 22.2833 7.53981 23.7562L0.922627 18.838ZM17.2888 32.9947L16.1841 34.0994L11.2294 27.4348C12.7242 26.9182 13.4369 26.0698 14.9044 24.6859L17.2888 32.9947ZM12.8664 25.6083C11.8503 26.5646 10.9665 26.7545 9.57054 27.2161C9.49149 27.2434 9.40631 27.2475 9.32496 27.2282C9.24361 27.2088 9.16946 27.1667 9.11117 27.1067L7.87158 25.8671C7.81139 25.8082 7.76915 25.7334 7.74979 25.6515C7.73043 25.5695 7.73473 25.4837 7.76221 25.4041C8.21502 24.0351 8.41846 23.124 9.37002 22.1119C11.5305 19.815 22.8494 7.79401 27.2127 3.16088C27.7163 2.62938 28.3314 2.21601 29.0138 1.95046C30.9898 1.17755 31.435 0.940932 32.3862 0.845776C33.8773 0.702495 33.808 0.707234 33.87 0.707234C33.9259 0.707003 33.9812 0.718451 34.0324 0.740846C34.0836 0.763241 34.1296 0.796087 34.1673 0.837279C34.2051 0.87847 34.2338 0.927098 34.2517 0.980044C34.2695 1.03299 34.2761 1.08909 34.2711 1.14473C34.1289 2.62895 34.1289 3.13572 33.8044 3.97755C32.3927 7.58947 33.1179 6.55078 28.4231 10.963L12.8664 25.6083ZM25.8856 14.3499L27.1179 18.9619L25.831 20.2489L23.7856 16.326L25.8856 14.3499ZM26.1846 20.927L27.333 19.7786C28.2923 23.3683 26.7457 17.5652 29.1705 26.6619C26.0508 20.678 26.6772 21.8826 26.1846 20.927ZM28.095 26.9682L25.5758 24.4453C25.4689 24.3384 25.4089 24.1935 25.4089 24.0424C25.4089 23.8913 25.4689 23.7464 25.5758 23.6395L26.3632 22.852L28.5872 27.1213C28.4989 27.1379 28.4079 27.1327 28.3221 27.106C28.2363 27.0793 28.1583 27.032 28.095 26.9682ZM33.6695 30.614L32.0653 32.2182L30.7164 29.6296C29.8359 26.3283 28.0629 19.6849 26.4836 13.7848L28.6346 11.7614C32.2513 25.29 31.7434 23.4062 33.6695 30.614ZM34.0742 21.7947L32.4919 23.377L31.1393 18.302C31.2158 18.2999 31.292 18.3138 31.3629 18.3426C31.4338 18.3715 31.4979 18.4148 31.5513 18.4697L34.0742 20.989C34.181 21.0959 34.241 21.2408 34.241 21.3919C34.241 21.543 34.181 21.6879 34.0742 21.7947Z" fill="#1D3278"/>
<path d="M28.1789 7.31342L28.2008 7.29519C28.2008 7.25873 28.1545 7.33784 31.5112 3.98112C31.571 3.91138 31.6022 3.82166 31.5986 3.72991C31.5951 3.63815 31.557 3.55111 31.4921 3.48618C31.4272 3.42125 31.3401 3.38321 31.2484 3.37967C31.1566 3.37612 31.0669 3.40733 30.9972 3.46706C26.5678 7.89602 39.4985 -5.03429 18.78 15.6842C18.7271 15.745 18.6937 15.8202 18.6839 15.9001C18.6742 15.98 18.6886 16.061 18.7253 16.1327C18.7521 16.187 18.7913 16.2342 18.8397 16.2706C18.888 16.307 18.9443 16.3315 19.0039 16.3421C19.0635 16.3527 19.1248 16.3492 19.1828 16.3319C19.2408 16.3145 19.2939 16.2837 19.3378 16.2421C28.6237 6.95612 28.1789 7.45815 28.1789 7.31342ZM13.8763 21.616C13.7565 21.4294 13.5947 21.2733 13.4039 21.1602C13.2131 21.0471 12.9985 20.98 12.7772 20.9645C12.556 20.9489 12.3341 20.9852 12.1293 21.0704C11.9246 21.1557 11.7425 21.2876 11.5977 21.4556L9.87685 23.4572C9.67453 23.6919 9.56846 23.9945 9.57995 24.3043C9.59143 24.614 9.7196 24.9079 9.93875 25.127C10.1579 25.3462 10.4518 25.4744 10.7615 25.4858C11.0712 25.4973 11.3738 25.3913 11.6086 25.1889L13.6102 23.4717C13.8628 23.2539 14.0311 22.9544 14.0857 22.6253C14.1403 22.2963 14.0779 21.9585 13.9091 21.6707C13.9009 21.651 13.8899 21.6325 13.8763 21.616ZM13.1326 22.9176L11.1347 24.6348C11.0543 24.7041 10.9538 24.7459 10.848 24.754C10.7422 24.7622 10.6365 24.7362 10.5465 24.68C10.4564 24.6238 10.3867 24.5402 10.3476 24.4416C10.3085 24.3429 10.3019 24.2343 10.3289 24.1316C10.3705 23.9734 10.2732 24.1189 12.1482 21.9332C12.2228 21.8443 12.3189 21.7758 12.4274 21.7344C12.5358 21.6929 12.6531 21.6798 12.768 21.6962C12.7931 21.6958 12.8179 21.7007 12.8409 21.7108C12.9661 21.7404 13.0806 21.8041 13.1717 21.8948C13.2629 21.9855 13.3271 22.0996 13.3573 22.2246C13.3875 22.3496 13.3825 22.4805 13.3429 22.6029C13.3032 22.7252 13.2304 22.8341 13.1326 22.9176Z" fill="#1D3278"/>
</g>
<defs>
<clipPath id="clip0_365_11179">
<rect width="35" height="35" fill="white"/>
</clipPath>
</defs>
</svg>
