<svg width="35" height="35" viewBox="0 0 35 35" fill="none" xmlns="http://www.w3.org/2000/svg">
<g clip-path="url(#clip0_365_11196)">
<path d="M14.7608 18.67L14.7716 15.7702C14.7719 15.6984 14.7581 15.6272 14.7309 15.5607C14.7036 15.4943 14.6636 15.4338 14.613 15.3828C14.5624 15.3319 14.5023 15.2913 14.4361 15.2636C14.3698 15.2358 14.2988 15.2214 14.227 15.2211H14.2248C14.0801 15.2211 13.9413 15.2784 13.8388 15.3805C13.7363 15.4826 13.6785 15.6211 13.6779 15.7658L13.6671 18.6728C13.1997 18.7941 12.7857 19.0668 12.4897 19.4482C12.1937 19.8297 12.0323 20.2984 12.0308 20.7812C12.0339 20.9884 12.0667 21.1941 12.1284 21.3919L10.0153 22.988C9.9001 23.0756 9.82431 23.2053 9.80453 23.3487C9.78474 23.4921 9.82257 23.6375 9.90973 23.753C9.99689 23.8686 10.1263 23.9449 10.2696 23.9653C10.4129 23.9856 10.5584 23.9484 10.6743 23.8617L12.6883 22.3405C12.9271 22.5762 13.2169 22.7536 13.5354 22.8592C13.8539 22.9647 14.1924 22.9954 14.5247 22.9489C14.8569 22.9024 15.174 22.78 15.4513 22.5912C15.7286 22.4023 15.9587 22.1521 16.1236 21.86C16.2886 21.5678 16.384 21.2416 16.4025 20.9066C16.421 20.5716 16.3621 20.2369 16.2302 19.9283C16.0984 19.6198 15.8973 19.3458 15.6425 19.1276C15.3876 18.9094 15.086 18.7528 14.7608 18.67ZM14.2183 21.875C14.002 21.875 13.7905 21.8109 13.6107 21.6907C13.4308 21.5705 13.2906 21.3997 13.2078 21.1998C13.1251 21 13.1034 20.78 13.1456 20.5679C13.1878 20.3557 13.292 20.1608 13.4449 20.0079C13.5979 19.8549 13.7928 19.7507 14.005 19.7085C14.2171 19.6663 14.437 19.688 14.6369 19.7708C14.8367 19.8535 15.0076 19.9937 15.1278 20.1736C15.2479 20.3535 15.3121 20.5649 15.3121 20.7812C15.3118 21.0712 15.1965 21.3493 14.9914 21.5543C14.7864 21.7594 14.5083 21.8747 14.2183 21.875ZM32.8121 19.7428V19.1406C32.8121 18.9956 32.7545 18.8565 32.6519 18.7539C32.5493 18.6514 32.4102 18.5938 32.2652 18.5938C32.1202 18.5938 31.9811 18.6514 31.8785 18.7539C31.7759 18.8565 31.7183 18.9956 31.7183 19.1406V19.6875H28.3795C28.231 17.7827 27.7003 15.9274 26.819 14.2322C25.9377 12.537 24.7239 11.0368 23.25 9.82105L23.9115 9.15955L24.7676 10.0157C24.8183 10.0665 24.8786 10.1068 24.945 10.1343C25.0113 10.1618 25.0824 10.1759 25.1542 10.1759C25.226 10.1759 25.2971 10.1618 25.3635 10.1343C25.4298 10.1068 25.4901 10.0665 25.5409 10.0157L27.1943 8.36172C27.2451 8.31095 27.2854 8.25068 27.3129 8.18434C27.3404 8.11799 27.3545 8.04689 27.3545 7.97508C27.3545 7.90327 27.3404 7.83216 27.3129 7.76582C27.2854 7.69948 27.2451 7.6392 27.1943 7.58844L24.7142 5.10826C24.6634 5.05747 24.6031 5.01718 24.5368 4.9897C24.4704 4.96221 24.3993 4.94806 24.3275 4.94806C24.2557 4.94806 24.1846 4.96221 24.1183 4.9897C24.0519 5.01718 23.9916 5.05747 23.9409 5.10826L22.2874 6.7617C22.2366 6.81247 22.1963 6.87275 22.1688 6.93909C22.1414 7.00543 22.1272 7.07654 22.1272 7.14835C22.1272 7.22016 22.1414 7.29126 22.1688 7.3576C22.1963 7.42394 22.2366 7.48422 22.2874 7.53499L23.1383 8.38608L22.3729 9.15152C20.892 8.10482 19.2235 7.35293 17.4585 6.93688C17.1074 6.85463 16.7565 6.80083 16.4058 6.74595V4.27427C16.7248 4.1619 17.0012 3.95356 17.197 3.67785C17.3929 3.40213 17.4985 3.07256 17.4996 2.73438V1.64062C17.4991 1.20565 17.3261 0.788626 17.0185 0.481052C16.711 0.173478 16.2939 0.000474795 15.859 0L12.5777 0C12.1427 0.000474795 11.7257 0.173478 11.4181 0.481052C11.1106 0.788626 10.9376 1.20565 10.9371 1.64062V2.73438C10.9381 3.07256 11.0438 3.40213 11.2396 3.67785C11.4355 3.95356 11.7119 4.1619 12.0308 4.27427V6.74061C9.82329 7.09074 7.72891 7.95468 5.91654 9.26279L5.04263 8.3886L5.89605 7.53504C5.94684 7.48427 5.98713 7.424 6.01462 7.35766C6.0421 7.29132 6.05625 7.22021 6.05625 7.1484C6.05625 7.07659 6.0421 7.00548 6.01462 6.93914C5.98713 6.8728 5.94684 6.81253 5.89605 6.76176L4.24266 5.10826C4.1919 5.05747 4.13162 5.01718 4.06528 4.9897C3.99894 4.96221 3.92783 4.94806 3.85602 4.94806C3.78421 4.94806 3.71311 4.96221 3.64677 4.9897C3.58043 5.01718 3.52015 5.05747 3.46938 5.10826L0.989195 7.58844C0.938407 7.6392 0.898119 7.69948 0.870631 7.76582C0.843144 7.83216 0.828996 7.90327 0.828996 7.97508C0.828996 8.04689 0.843144 8.11799 0.870631 8.18434C0.898119 8.25068 0.938407 8.31095 0.989195 8.36172L2.64263 10.0157C2.69339 10.0665 2.75367 10.1068 2.82001 10.1343C2.88635 10.1618 2.95746 10.1759 3.02927 10.1759C3.10108 10.1759 3.17219 10.1618 3.23853 10.1343C3.30487 10.1068 3.36514 10.0665 3.41591 10.0157L4.26947 9.16203L5.04986 9.94269C3.03313 11.6392 1.52865 13.8638 0.705007 16.3672C-0.11864 18.8705 -0.228914 21.5538 0.38654 24.1164C1.00199 26.6789 2.31886 29.0194 4.18959 30.8757C6.06031 32.7319 8.41098 34.0306 10.9782 34.6262C12.047 34.8765 13.141 35.0033 14.2387 35.0043C15.9622 34.999 17.6701 34.6775 19.2777 34.056C19.5318 34.351 19.8464 34.588 20.2001 34.7509C20.5538 34.9138 20.9383 34.9987 21.3277 35H32.2652C32.9902 34.9992 33.6852 34.7109 34.1979 34.1983C34.7105 33.6856 34.9988 32.9906 34.9996 32.2656V22.4219C34.9988 21.7918 34.7808 21.1813 34.3823 20.6933C33.9838 20.2052 33.4292 19.8695 32.8121 19.7428ZM24.3275 6.26828L26.0344 7.97508L25.1542 8.85574L23.4474 7.14836L24.3275 6.26828ZM3.88349 8.00125L3.88215 8.00259L3.02926 8.85571L2.14916 7.97508L3.85601 6.26828L4.73614 7.14841L3.88349 8.00125ZM12.0308 1.64062C12.0309 1.49562 12.0886 1.35657 12.1911 1.25403C12.2937 1.1515 12.4327 1.09385 12.5777 1.09375H15.859C16.004 1.09385 16.143 1.1515 16.2455 1.25403C16.3481 1.35657 16.4057 1.49562 16.4058 1.64062V2.73438C16.4057 2.87938 16.3481 3.01843 16.2455 3.12097C16.143 3.2235 16.004 3.28115 15.859 3.28125H12.5777C12.4327 3.28115 12.2937 3.2235 12.1911 3.12097C12.0886 3.01843 12.0309 2.87938 12.0308 2.73438V1.64062ZM15.3121 4.375V6.62144C14.5844 6.56003 13.853 6.55519 13.1246 6.60696V4.375H15.3121ZM11.2271 33.5602C8.86916 33.0097 6.70948 31.8177 4.98697 30.116C3.26447 28.4143 2.04628 26.2692 1.46719 23.9182C0.888099 21.5671 0.970674 19.1017 1.70578 16.7947C2.44089 14.4876 3.79987 12.4289 5.63238 10.8463C7.46488 9.26363 9.69948 8.21878 12.089 7.8273C14.4784 7.43582 16.9296 7.71298 19.1713 8.62812C21.4131 9.54325 23.3579 11.0607 24.7908 13.0125C26.2237 14.9644 27.0886 17.2746 27.2901 19.6875H26.1814C25.92 16.9244 24.7065 14.338 22.7486 12.3708C22.7394 12.3602 22.7359 12.3468 22.7259 12.3367C22.7176 12.3285 22.7064 12.3258 22.6978 12.3181C20.4654 10.0902 17.4456 8.83083 14.2917 8.81272C11.1378 8.7946 8.10368 10.0192 5.8459 12.2213C5.82661 12.2324 5.80806 12.2448 5.79036 12.2583C5.78021 12.2684 5.77668 12.2819 5.76754 12.2926C3.51332 14.5141 2.22886 17.5368 2.19426 20.7016C2.19365 20.7123 2.18811 20.7213 2.18811 20.7322L2.19178 20.7505C2.19155 20.782 2.18708 20.8126 2.18708 20.8443C2.18545 24.0232 3.44611 27.0726 5.69197 29.3224C5.69963 29.3312 5.70245 29.3424 5.71079 29.3507C5.71914 29.3591 5.73009 29.3617 5.73869 29.3693C7.38744 31.0196 9.48289 32.1516 11.7669 32.6258C14.051 33.1001 16.4239 32.8959 18.5933 32.0384V32.2656C18.5971 32.5479 18.6452 32.8278 18.7358 33.0951C16.3331 33.9853 13.7212 34.1471 11.2271 33.5602ZM18.5933 22.4219V30.8594C17.3823 31.3877 16.085 31.6902 14.7652 31.7521V30.0781C14.7652 29.9331 14.7076 29.794 14.605 29.6914C14.5025 29.5889 14.3634 29.5312 14.2183 29.5312C14.0733 29.5312 13.9342 29.5889 13.8316 29.6914C13.7291 29.794 13.6715 29.9331 13.6715 30.0781V31.7541C11.1544 31.6304 8.75833 30.6366 6.89267 28.9425L8.0756 27.7603C8.17644 27.6574 8.2326 27.5189 8.23187 27.3748C8.23114 27.2308 8.17359 27.0928 8.07172 26.9909C7.96984 26.889 7.83188 26.8315 7.68782 26.8308C7.54375 26.83 7.40522 26.8862 7.30232 26.987L6.11942 28.1691C4.39954 26.275 3.40227 23.8354 3.30287 21.279H4.97005C5.11509 21.279 5.25419 21.2214 5.35675 21.1188C5.45931 21.0163 5.51693 20.8772 5.51693 20.7321C5.51693 20.5871 5.45931 20.448 5.35675 20.3454C5.25419 20.2429 5.11509 20.1852 4.97005 20.1852H3.31421C3.46399 17.6698 4.48214 15.2844 6.19485 13.436L7.37118 14.6123C7.47408 14.7132 7.61261 14.7693 7.75668 14.7686C7.90075 14.7679 8.03871 14.7103 8.14058 14.6085C8.24245 14.5066 8.3 14.3686 8.30073 14.2246C8.30146 14.0805 8.2453 13.942 8.14446 13.8391L6.97564 12.6702C8.83002 11.0209 11.1927 10.0554 13.6715 9.93394V11.4844C13.6715 11.6294 13.7291 11.7685 13.8316 11.8711C13.9342 11.9736 14.0733 12.0312 14.2183 12.0312C14.3634 12.0312 14.5025 11.9736 14.605 11.8711C14.7076 11.7685 14.7652 11.6294 14.7652 11.4844V9.93287C17.2838 10.0541 19.6823 11.0453 21.5517 12.7374L20.4497 13.839C20.3981 13.8896 20.357 13.9499 20.3288 14.0165C20.3007 14.0831 20.286 14.1545 20.2856 14.2268C20.2853 14.2991 20.2992 14.3707 20.3267 14.4376C20.3542 14.5044 20.3947 14.5651 20.4458 14.6162C20.4969 14.6673 20.5576 14.7078 20.6245 14.7353C20.6913 14.7628 20.7629 14.7768 20.8352 14.7764C20.9075 14.776 20.979 14.7613 21.0455 14.7332C21.1121 14.705 21.1724 14.6639 21.223 14.6123L22.3267 13.509C23.8794 15.223 24.8455 17.3872 25.0847 19.6875H21.8746V19.1406C21.8746 18.9956 21.817 18.8565 21.7144 18.7539C21.6118 18.6514 21.4727 18.5938 21.3277 18.5938C21.1827 18.5938 21.0436 18.6514 20.941 18.7539C20.8384 18.8565 20.7808 18.9956 20.7808 19.1406V19.7428C20.1637 19.8695 19.6091 20.2052 19.2106 20.6933C18.8121 21.1813 18.5941 21.7918 18.5933 22.4219ZM33.9058 32.2656C33.9054 32.7006 33.7324 33.1176 33.4248 33.4252C33.1172 33.7328 32.7002 33.9058 32.2652 33.9062H21.3277C20.8927 33.9058 20.4757 33.7328 20.1681 33.4252C19.8606 33.1176 19.6876 32.7006 19.6871 32.2656V24.0625H33.9058V32.2656ZM33.9058 22.9688H19.6871V22.4219C19.6881 22.0837 19.7938 21.7541 19.9896 21.4784C20.1855 21.2027 20.4619 20.9943 20.7808 20.882V21.3281C20.7808 21.4732 20.8384 21.6123 20.941 21.7148C21.0436 21.8174 21.1827 21.875 21.3277 21.875C21.4727 21.875 21.6118 21.8174 21.7144 21.7148C21.817 21.6123 21.8746 21.4732 21.8746 21.3281V20.7812H31.7183V21.3281C31.7183 21.4732 31.7759 21.6123 31.8785 21.7148C31.9811 21.8174 32.1202 21.875 32.2652 21.875C32.4102 21.875 32.5493 21.8174 32.6519 21.7148C32.7545 21.6123 32.8121 21.4732 32.8121 21.3281V20.882C33.1311 20.9943 33.4074 21.2027 33.6033 21.4784C33.7991 21.7541 33.9048 22.0837 33.9058 22.4219V22.9688ZM26.7965 32.8125C27.2418 32.8144 27.677 32.6797 28.0435 32.4267C28.4099 32.1736 28.69 31.8143 28.846 31.3972C29.002 30.9801 29.0264 30.5251 28.9159 30.0937C28.8053 29.6623 28.5653 29.2751 28.2279 28.9844C28.5652 28.6925 28.8052 28.3044 28.9158 27.8723C29.0263 27.4401 29.002 26.9845 28.8463 26.5665C28.6905 26.1485 28.4107 25.7881 28.0443 25.5336C27.6779 25.2792 27.2425 25.1428 26.7965 25.1428C26.3504 25.1428 25.915 25.2792 25.5486 25.5336C25.1822 25.7881 24.9024 26.1485 24.7466 26.5665C24.5909 26.9845 24.5666 27.4401 24.6772 27.8723C24.7877 28.3044 25.0277 28.6925 25.365 28.9844C25.0277 29.2751 24.7876 29.6623 24.6771 30.0937C24.5666 30.5251 24.5909 30.9801 24.7469 31.3972C24.9029 31.8143 25.183 32.1736 25.5494 32.4267C25.9159 32.6797 26.3511 32.8144 26.7965 32.8125ZM26.7965 26.25C27.0128 26.25 27.2242 26.3141 27.4041 26.4343C27.584 26.5545 27.7242 26.7253 27.8069 26.9252C27.8897 27.125 27.9114 27.345 27.8692 27.5571C27.827 27.7693 27.7228 27.9642 27.5699 28.1171C27.4169 28.2701 27.222 28.3743 27.0098 28.4165C26.7977 28.4587 26.5778 28.437 26.3779 28.3542C26.178 28.2715 26.0072 28.1313 25.887 27.9514C25.7669 27.7715 25.7027 27.5601 25.7027 27.3438C25.703 27.0538 25.8183 26.7757 26.0234 26.5707C26.2284 26.3656 26.5065 26.2503 26.7965 26.25ZM26.7965 29.5312C27.0128 29.5312 27.2242 29.5954 27.4041 29.7156C27.584 29.8358 27.7242 30.0066 27.8069 30.2064C27.8897 30.4063 27.9114 30.6262 27.8692 30.8384C27.827 31.0505 27.7228 31.2454 27.5699 31.3984C27.4169 31.5514 27.222 31.6555 27.0098 31.6977C26.7977 31.7399 26.5778 31.7183 26.3779 31.6355C26.178 31.5527 26.0072 31.4125 25.887 31.2327C25.7669 31.0528 25.7027 30.8413 25.7027 30.625C25.703 30.335 25.8183 30.057 26.0234 29.8519C26.2284 29.6469 26.5065 29.5315 26.7965 29.5312Z" fill="#1D3278"/>
</g>
<defs>
<clipPath id="clip0_365_11196">
<rect width="35" height="35" fill="white"/>
</clipPath>
</defs>
</svg>
