<svg width="35" height="35" viewBox="0 0 35 35" fill="none" xmlns="http://www.w3.org/2000/svg">
<path d="M9.83982 14.8779C6.82808 14.8779 4.37793 17.3281 4.37793 20.3398C4.37793 23.3516 6.82808 25.8018 9.83982 25.8018C12.8516 25.8018 15.3018 23.3516 15.3018 20.3398C15.3018 17.3282 12.8516 14.8779 9.83982 14.8779ZM9.83982 24.8966C7.32721 24.8966 5.2831 22.8524 5.2831 20.3398C5.2831 17.8272 7.32729 15.7831 9.83982 15.7831C12.3525 15.7831 14.3966 17.8273 14.3966 20.3398C14.3966 22.8525 12.3524 24.8966 9.83982 24.8966Z" fill="#1D3278"/>
<path d="M9.83859 16.2144C7.56367 16.2144 5.71289 18.0652 5.71289 20.3401C5.71289 21.1862 5.96724 21.9995 6.4485 22.692L7.19179 22.1754C6.81637 21.6353 6.61806 21.0007 6.61806 20.3401C6.61806 18.5643 8.0628 17.1195 9.83859 17.1195C11.6145 17.1195 13.0592 18.5643 13.0592 20.3401C13.0592 22.1159 11.6145 23.5607 9.83859 23.5607C9.0572 23.5607 8.30365 23.2773 7.71679 22.763L7.12013 23.4437C7.87218 24.1028 8.83762 24.4658 9.83859 24.4658C12.1135 24.4658 13.9644 22.6151 13.9644 20.3401C13.9644 18.0652 12.1135 16.2144 9.83859 16.2144Z" fill="#1D3278"/>
<path d="M10.6398 19.5237L11.2798 18.8837C10.4575 18.0615 9.11959 18.0615 8.29731 18.8837C7.47511 19.7059 7.47511 21.0439 8.29731 21.8662C8.70849 22.2772 9.2485 22.4829 9.78859 22.4829C10.3287 22.4829 10.8687 22.2772 11.2799 21.8662L10.6398 21.2261C10.1705 21.6955 9.40675 21.6955 8.9375 21.2261C8.71015 20.9988 8.58493 20.6965 8.58493 20.375C8.58493 20.0534 8.71015 19.7511 8.9375 19.5238C9.40668 19.0543 10.1704 19.0543 10.6398 19.5237Z" fill="#1D3278"/>
<path d="M13.7661 11.7861H3.81836V12.6913H13.7661V11.7861Z" fill="#1D3278"/>
<path d="M16.3727 11.7861H14.7617V12.6913H16.3727V11.7861Z" fill="#1D3278"/>
<path d="M13.7661 10.0732H3.81836V10.9784H13.7661V10.0732Z" fill="#1D3278"/>
<path d="M16.3727 10.0732H14.7617V10.9784H16.3727V10.0732Z" fill="#1D3278"/>
<path d="M24.618 21.9758C24.618 23.0834 25.0497 24.1255 25.8339 24.9105C25.9449 25.0215 26.0613 25.1249 26.1819 25.2215H20.6111C19.2371 25.2215 18.1192 24.1041 18.1185 22.7302L18.1185 20.7926H22.6397V19.8874H18.1185V19.171H22.6397V18.2658H18.1185V15.4723H22.6397V14.5671H18.1185V8.32345H30.0725V9.24673H21.8564V10.1519H30.9777V8.32345H33.409V5.37146H25.5234V4.27959L25.5129 4.25485C25.4866 3.10935 24.9857 2.01998 24.1292 1.25345C23.9212 1.06736 23.6912 0.90043 23.445 0.757187C22.9551 0.47266 22.4098 0.29321 21.8463 0.227585V0.198242H7.72465C4.3424 0.198242 1.59082 2.94989 1.59082 6.33207V9.69441H2.49599V6.33207C2.49599 3.44895 4.8416 1.10342 7.72465 1.10342H18.7778C18.6568 1.20027 18.5399 1.30361 18.4288 1.41495C17.7181 2.1246 17.2898 3.06734 17.2231 4.06688C17.2166 4.15581 17.2134 4.25078 17.2134 4.34944V5.37138H13.7227L10.9935 6.84734L13.7227 8.3233H17.2134V22.7288C17.2134 22.7292 17.2134 22.7296 17.2134 22.73V33.8957H8.17588V27.9891H2.49599V11.8718H1.59082V28.5417L7.57032 34.801H18.1185V25.0348C18.7396 25.7057 19.627 26.1268 20.6111 26.1268H28.7704V26.1265C31.0585 26.1263 32.9201 24.2644 32.9201 21.9759V18.5105H25.5234V11.0818H24.6183V21.9756M25.5234 21.9755V19.4155H32.0149V21.9757C32.0149 23.7653 30.5593 25.2211 28.7701 25.2211C28.6409 25.2211 28.5121 25.2135 28.3871 25.1984L28.3734 25.1969C28.3637 25.1961 28.3543 25.1947 28.3449 25.1934L28.3242 25.1907C27.6198 25.0946 26.9799 24.7763 26.4742 24.2706C25.8609 23.6566 25.5232 22.8417 25.5232 21.9756M7.27071 33.1769L3.1794 28.8943H7.27063L7.27071 33.1769ZM18.1185 4.34952C18.1185 4.27265 18.121 4.19979 18.1261 4.12994C18.1784 3.34681 18.5131 2.61008 19.0688 2.05505C19.6775 1.44557 20.4859 1.10787 21.3432 1.10432H21.3646C21.9376 1.10432 22.4998 1.25496 22.9901 1.53978C23.1831 1.65203 23.3633 1.78267 23.5257 1.92795C24.214 2.54415 24.6088 3.42677 24.6088 4.34959V4.44169L24.6183 4.46387V5.37153H18.1185V4.34952ZM12.8963 6.84742L13.9518 6.27663H14.2728V7.41828H13.9518L12.8963 6.84742ZM15.178 7.41828V6.27663H30.0725V7.41828H15.178ZM32.5038 7.41828H30.9777V6.27663H32.5038V7.41828Z" fill="#1D3278"/>
</svg>
