<svg width="35" height="35" viewBox="0 0 35 35" fill="none" xmlns="http://www.w3.org/2000/svg">
<g clip-path="url(#clip0_365_11198)">
<path d="M31.9533 21.7045C31.8603 21.7045 31.7693 21.6732 31.6956 21.6139C31.5992 21.5365 31.5428 21.4203 31.5416 21.2968C31.5412 21.2614 31.5346 21.2264 31.521 21.1889C31.3451 20.7051 30.1308 19.9799 27.25 19.3981C24.5956 18.8619 21.1329 18.5667 17.4998 18.5667C13.8666 18.5667 10.4039 18.8619 7.74959 19.3981C4.86876 19.9799 3.65442 20.7047 3.47859 21.1889C3.465 21.226 3.45841 21.2614 3.458 21.2968C3.45676 21.4203 3.40035 21.5365 3.30399 21.6139C3.20763 21.6913 3.08204 21.7214 2.96139 21.6958C0.967948 21.2762 -0.000976562 20.0998 -0.000976562 18.0985C-0.000976562 15.286 1.89034 12.4114 5.18748 10.212C6.81444 9.12698 8.67981 8.27006 10.7313 7.66515C12.9018 7.02524 15.179 6.70117 17.4994 6.70117C19.8198 6.70117 22.0969 7.02566 24.2674 7.66515C26.3193 8.27006 28.1843 9.12698 29.8113 10.212C33.1088 12.4114 34.9997 15.286 34.9997 18.0985C34.9997 20.0998 34.0308 21.2762 32.0373 21.6958C32.0102 21.7016 31.9818 21.7045 31.9533 21.7045ZM17.4998 7.52432C7.95466 7.52432 0.822588 13.1069 0.822588 18.0985C0.822588 19.5821 1.40444 20.4069 2.75138 20.7957C3.18251 19.893 4.80741 19.1518 7.58653 18.5906C10.2928 18.0441 13.8135 17.7431 17.4998 17.7431C21.1861 17.7431 24.7064 18.0441 27.4126 18.5906C30.1922 19.1518 31.817 19.8934 32.2478 20.7957C33.5947 20.4069 34.1766 19.5817 34.1766 18.0985C34.177 13.1069 27.0449 7.52432 17.4998 7.52432ZM25.9203 28.3C25.7832 28.3 25.6457 28.295 25.5081 28.2848L20.9217 27.9409C18.6404 27.77 16.3274 27.77 14.0478 27.9413L9.49226 28.2835C8.13214 28.3856 6.79014 27.9809 5.71333 27.1437C4.63652 26.3065 3.91384 25.1058 3.67789 23.7626L3.654 23.6263C3.61571 23.408 3.75695 23.1984 3.97396 23.1523C4.50351 23.0395 5.22413 22.9345 6.11564 22.8402C8.88611 22.5453 13.0356 22.3761 17.4998 22.3761C21.9639 22.3761 26.113 22.5453 28.8839 22.8402C29.7758 22.9349 30.4965 23.0399 31.0256 23.1523C31.2422 23.1984 31.3834 23.4076 31.3456 23.6258L31.3217 23.763C31.0857 25.1066 30.3626 26.3074 29.2862 27.1445C28.319 27.8964 27.1371 28.3 25.9203 28.3ZM17.487 26.9889C18.6552 26.9889 19.8231 27.0325 20.9835 27.1194L25.5699 27.4632C27.8812 27.6366 29.9364 26.111 30.4573 23.8811C30.0081 23.8025 29.4518 23.728 28.797 23.6588C26.0537 23.3668 21.9359 23.1992 17.4998 23.1992C13.0632 23.1992 8.94541 23.3668 6.20253 23.6584C5.5482 23.728 4.99189 23.8025 4.54263 23.8807C5.06395 26.1105 7.11957 27.6354 9.43049 27.4616L13.986 27.1194C15.1473 27.0325 16.3171 26.9889 17.487 26.9889Z" fill="#1D3278"/>
<path d="M31.5275 24.0996C31.4476 24.0996 31.3665 24.0881 31.287 24.0646C31.1672 24.0292 31.0214 23.9929 30.8542 23.9575C30.3523 23.8509 29.6601 23.7504 28.7965 23.6586C26.0537 23.367 21.9358 23.1994 17.4997 23.1994C13.0632 23.1994 8.94533 23.367 6.20245 23.6586C5.33935 23.75 4.64715 23.8505 4.14518 23.9575C3.978 23.9929 3.83223 24.0292 3.7124 24.0646C3.45627 24.1404 3.18614 24.0922 2.97202 23.932C2.75748 23.7718 2.63477 23.5264 2.63477 23.2587V21.2929C2.63477 21.2916 2.63477 21.29 2.63477 21.2888C2.636 21.1611 2.65947 21.033 2.70477 20.9083C3.05108 19.955 4.69368 19.1751 7.58727 18.5908C10.2927 18.0443 13.8134 17.7433 17.4997 17.7433C21.186 17.7433 24.7063 18.0443 27.4125 18.5908C30.3061 19.1755 31.9491 19.955 32.295 20.9083C32.3403 21.033 32.3638 21.1611 32.365 21.2888C32.365 21.29 32.365 21.2916 32.365 21.2929V23.2587C32.365 23.5264 32.2419 23.7718 32.0278 23.932C31.88 24.0424 31.7058 24.0996 31.5275 24.0996ZM17.4997 22.3759C21.9638 22.3759 26.113 22.5451 28.8838 22.8399C29.7758 22.9347 30.4964 23.0397 31.0255 23.1521C31.2133 23.192 31.3801 23.2332 31.5209 23.2748C31.5242 23.2756 31.5283 23.2769 31.5349 23.2723C31.5415 23.2674 31.5415 23.2624 31.5415 23.2587V21.2954C31.5411 21.2608 31.5341 21.2258 31.5209 21.1891C31.3451 20.7053 30.1307 19.9801 27.2499 19.3983C24.5955 18.8621 21.1329 18.5669 17.4997 18.5669C13.8665 18.5669 10.4039 18.8621 7.74952 19.3983C4.86869 19.9801 3.65434 20.7049 3.47851 21.1891C3.46533 21.2258 3.45833 21.2604 3.45792 21.2954V23.2587C3.45792 23.2624 3.45792 23.2674 3.46451 23.2723C3.47068 23.2773 3.47521 23.276 3.47851 23.2748C3.61893 23.2332 3.7857 23.192 3.97388 23.1521C4.50343 23.0393 5.22405 22.9342 6.11515 22.8399C8.88604 22.5451 13.0356 22.3759 17.4997 22.3759ZM19.1291 14.3634L18.4872 13.8474L19.3342 12.7933C19.5331 12.5454 19.8296 12.4033 20.1475 12.4033H23.5064C23.8893 12.4033 24.2538 12.2584 24.5321 11.9948L24.7467 11.7918H19.7793C19.4264 11.7918 19.1048 11.9998 18.9599 12.3214L18.5382 13.2574L17.7875 12.9189L18.2092 11.9829C18.4872 11.3665 19.1032 10.9683 19.7793 10.9683H25.7811C25.9495 10.9683 26.1014 11.0712 26.1636 11.2277C26.2258 11.3842 26.1867 11.5633 26.064 11.679L25.0983 12.5927C24.6664 13.0016 24.101 13.2265 23.5064 13.2265H20.1475C20.0803 13.2265 20.0182 13.2565 19.9762 13.3088L19.1291 14.3634Z" fill="#1D3278"/>
<path d="M21.2038 14.6615H18.8438V13.838H21.2038C21.5892 13.838 21.9573 13.6539 22.1883 13.3455L22.7714 12.5676L23.4303 13.0618L22.8472 13.8396C22.4618 14.3543 21.847 14.6615 21.2038 14.6615ZM15.8712 14.363L15.0241 13.3088C14.9821 13.2565 14.9195 13.2265 14.8528 13.2265H11.4939C10.8993 13.2265 10.3339 13.0012 9.90197 12.5927L8.93634 11.679C8.81404 11.5633 8.77451 11.3842 8.83669 11.2277C8.89887 11.0712 9.05082 10.9683 9.21924 10.9683H15.221C15.8971 10.9683 16.5131 11.3665 16.7911 11.9829L17.2128 12.9189L16.4621 13.2574L16.0404 12.3214C15.8955 11.9998 15.5739 11.7918 15.221 11.7918H10.2536L10.4682 11.9948C10.7465 12.2584 11.1106 12.4033 11.4939 12.4033H14.8528C15.1707 12.4033 15.4672 12.5454 15.6661 12.7933L16.5131 13.8474L15.8712 14.363Z" fill="#1D3278"/>
<path d="M16.1567 14.6618H13.7968C13.1536 14.6618 12.5392 14.3546 12.1534 13.8399L11.5703 13.062L12.2292 12.5679L12.8122 13.3457C13.0433 13.6542 13.4114 13.8382 13.7968 13.8382H16.1567V14.6618Z" fill="#1D3278"/>
<path d="M17.4999 16.1272C16.5054 16.1272 15.6963 15.3181 15.6963 14.3236C15.6963 13.3292 16.5054 12.52 17.4999 12.52C18.4944 12.52 19.3035 13.3292 19.3035 14.3236C19.3035 15.3181 18.4944 16.1272 17.4999 16.1272ZM17.4999 13.344C16.9596 13.344 16.5199 13.7834 16.5199 14.324C16.5199 14.8643 16.9592 15.3041 17.4999 15.3041C18.0406 15.3041 18.4799 14.8647 18.4799 14.324C18.4799 13.7838 18.0402 13.344 17.4999 13.344Z" fill="#1D3278"/>
</g>
<defs>
<clipPath id="clip0_365_11198">
<rect width="35" height="35" fill="white"/>
</clipPath>
</defs>
</svg>
