<svg width="35" height="35" viewBox="0 0 35 35" fill="none" xmlns="http://www.w3.org/2000/svg">
<g clip-path="url(#clip0_365_11192)">
<path d="M15.4081 29.7435L15.1811 29.7163L15.3878 27.9677C15.4493 27.4486 15.3966 26.9224 15.2332 26.4259C15.0698 25.9293 14.7997 25.4746 14.442 25.0935L8.33774 18.5789L9.16352 14.4223C9.20896 14.1934 9.20789 13.9578 9.16037 13.7294C9.11286 13.501 9.01987 13.2845 8.88695 13.0927C8.75403 12.901 8.58389 12.738 8.38666 12.6134C8.18943 12.4888 7.96914 12.4051 7.73891 12.3674C7.64541 12.3522 7.55084 12.3445 7.45611 12.3444C7.08564 12.3433 6.72461 12.4612 6.42604 12.6805C6.12747 12.8998 5.9071 13.2091 5.7973 13.5629L4.13357 18.8679C3.83224 19.8325 3.85462 20.8691 4.19728 21.8198L5.41545 25.1853C5.70775 25.9925 6.21937 26.7022 6.89283 27.2346L7.65216 27.8348C7.81284 27.9626 7.94646 28.1211 8.04523 28.301C8.14399 28.481 8.20592 28.6789 8.22741 28.883C7.84076 28.8475 7.45548 28.964 7.15332 29.2078C6.85116 29.4517 6.65591 29.8037 6.609 30.1891L6.50168 31.0838L6.50154 31.0842V31.0847L6.23138 33.3362C6.21588 33.4708 6.25433 33.6061 6.33834 33.7125C6.42234 33.8189 6.54505 33.8877 6.67963 33.9038C6.81422 33.92 6.94972 33.8822 7.0565 33.7987C7.16329 33.7152 7.23266 33.5928 7.24946 33.4583L7.45768 31.7227L15.5183 32.7478L15.317 34.4262C15.3081 34.4935 15.3126 34.5618 15.3304 34.6273C15.3481 34.6928 15.3786 34.7541 15.4202 34.8077C15.4618 34.8613 15.5136 34.9061 15.5727 34.9395C15.6317 34.9729 15.6968 34.9943 15.7641 35.0024C15.8315 35.0105 15.8998 35.0051 15.965 34.9866C16.0303 34.9681 16.0912 34.9368 16.1443 34.8946C16.1974 34.8524 16.2416 34.8001 16.2744 34.7406C16.3071 34.6812 16.3277 34.6159 16.335 34.5484L16.5964 32.3696L16.5966 32.368L16.5968 32.366L16.7126 31.4014C16.7358 31.2069 16.7205 31.0098 16.6675 30.8212C16.6145 30.6326 16.5249 30.4563 16.4038 30.3023C16.2826 30.1484 16.1324 30.0198 15.9615 29.9239C15.7907 29.828 15.6027 29.7667 15.4081 29.7435H15.4081ZM7.52884 26.4304C7.00497 26.0162 6.60696 25.4641 6.37952 24.8362L5.16135 21.4706C4.89487 20.7313 4.87746 19.9252 5.11179 19.1751L6.77566 13.8699C6.82068 13.7248 6.91106 13.5978 7.03353 13.5078C7.156 13.4178 7.30411 13.3694 7.45611 13.3697C7.49549 13.3698 7.53481 13.373 7.57369 13.3793C7.66813 13.3949 7.75849 13.4292 7.83937 13.4804C7.92026 13.5316 7.99002 13.5985 8.04451 13.6772C8.099 13.7559 8.13711 13.8448 8.15657 13.9385C8.17602 14.0322 8.17642 14.1289 8.15775 14.2227L7.32404 18.4193C6.86775 18.7336 6.54332 19.2051 6.41277 19.7436C6.28222 20.2821 6.35471 20.8498 6.61638 21.3382L8.06902 24.0555C8.13314 24.1754 8.24227 24.2649 8.3724 24.3044C8.43684 24.3239 8.50449 24.3306 8.5715 24.324C8.63851 24.3174 8.70356 24.2976 8.76293 24.2659C8.82231 24.2341 8.87486 24.191 8.91757 24.139C8.96028 24.0869 8.99232 24.0269 9.01185 23.9625C9.03139 23.8981 9.03805 23.8304 9.03144 23.7634C9.02483 23.6964 9.00509 23.6314 8.97335 23.572L7.52057 20.8544C7.42459 20.6768 7.37447 20.478 7.37476 20.2761C7.37437 19.9566 7.49827 19.6494 7.72025 19.4196L13.6937 25.7946C13.9493 26.0668 14.1422 26.3916 14.2589 26.7463C14.3756 27.1009 14.4134 27.4768 14.3694 27.8476L14.1631 29.5942L9.26059 29.0059C9.25463 28.6252 9.16431 28.2506 8.99614 27.909C8.82797 27.5674 8.58613 27.2673 8.28804 27.0304L7.52884 26.4304ZM15.6945 31.2792L15.6405 31.7296L7.57984 30.7045L7.62701 30.3113C7.64224 30.1886 7.70545 30.077 7.80282 30.0008C7.90018 29.9247 8.02375 29.8902 8.14647 29.905L8.66887 29.9677H8.66921L15.2859 30.7616C15.4087 30.7761 15.5208 30.8387 15.5974 30.9358C15.674 31.0329 15.709 31.1564 15.6945 31.2792ZM22.7454 15.2533C24.1662 13.2389 24.9171 10.9383 24.9171 8.59991V3.20881C24.9171 3.08634 24.8733 2.96791 24.7936 2.87496C24.7138 2.78201 24.6034 2.72068 24.4824 2.70206C23.176 2.5023 21.8986 2.14547 20.6778 1.63935C19.681 1.22653 18.7314 0.707881 17.8454 0.0923075C17.7568 0.0304339 17.6509 -0.00184599 17.5428 8.15652e-05C17.4348 0.00200912 17.3301 0.0380455 17.2437 0.10304C16.594 0.590419 15.9004 1.0164 15.1719 1.37548C13.7119 2.08889 12.1434 2.55444 10.5306 2.75306C10.407 2.76893 10.2933 2.82933 10.211 2.92294C10.1286 3.01655 10.0832 3.13697 10.0832 3.26165V8.59997C10.0832 10.9383 10.8341 13.2389 12.2549 15.2533C13.486 16.9985 15.2139 18.5175 17.2518 19.646C17.3278 19.688 17.4133 19.7101 17.5002 19.7101C17.587 19.7101 17.6725 19.688 17.7485 19.646C19.7864 18.5175 21.5144 16.9985 22.7454 15.2533ZM17.5002 18.6083C15.7049 17.5707 14.1852 16.211 13.0928 14.6622C11.7947 12.8218 11.1086 10.7254 11.1086 8.59997V3.70681C12.6776 3.46918 14.2011 2.993 15.6261 2.29478C16.3012 1.96169 16.9488 1.57554 17.5627 1.13998C18.4217 1.70743 19.333 2.19165 20.2839 2.58606C21.4448 3.06771 22.6545 3.42211 23.8918 3.64303V8.59997C23.8918 10.7254 23.2056 12.8218 21.9075 14.6622C20.8151 16.211 19.2954 17.5707 17.5002 18.6083ZM22.8664 4.88539C22.8664 4.77104 22.8281 4.65996 22.7578 4.56983C22.6874 4.47969 22.5889 4.41567 22.4779 4.38794C21.5952 4.16753 20.7302 3.88166 19.89 3.5327C19.1875 3.24065 18.5048 2.90301 17.8463 2.52194C17.7662 2.47554 17.6751 2.45167 17.5826 2.45285C17.49 2.45403 17.3996 2.48022 17.3207 2.52864C16.918 2.77593 16.5041 3.00465 16.0804 3.21408C14.9498 3.77002 13.7588 4.19342 12.531 4.47585C12.4181 4.50199 12.3174 4.56559 12.2453 4.65629C12.1732 4.74698 12.134 4.85942 12.1339 4.97529V8.59997C12.1339 10.5127 12.7553 12.4046 13.9308 14.0712C14.7769 15.2708 15.8818 16.3314 17.215 17.2236C17.2993 17.2801 17.3986 17.3102 17.5002 17.3102C17.6017 17.3102 17.701 17.2801 17.7853 17.2236C19.1185 16.3314 20.2235 15.2708 21.0695 14.0712C22.245 12.4046 22.8664 10.5127 22.8664 8.59997V4.88539ZM21.841 8.59997C21.841 10.2999 21.2845 11.9874 20.2316 13.4801C19.4788 14.5253 18.5554 15.4363 17.5002 16.1749C16.4449 15.4362 15.5215 14.5252 14.7687 13.48C13.7158 11.9873 13.1593 10.2999 13.1593 8.59984V5.37813C14.3246 5.08159 15.4558 4.6644 16.5346 4.1333C16.8955 3.955 17.2496 3.76356 17.5965 3.55936C18.2117 3.90185 18.8459 4.20905 19.496 4.47948C20.2597 4.79672 21.043 5.0646 21.841 5.28147V8.59997ZM30.8669 18.8682L29.203 13.5627C29.0697 13.138 28.7787 12.7805 28.3899 12.5638C28.001 12.3471 27.5439 12.2878 27.1126 12.3979C26.6813 12.5081 26.3086 12.7794 26.0713 13.156C25.8339 13.5327 25.75 13.9859 25.8368 14.4226L26.6626 18.5789L20.5583 25.0935C20.2005 25.4746 19.9305 25.9294 19.7671 26.426C19.6037 26.9225 19.5509 27.4488 19.6125 27.9679L19.8192 29.7163L19.5922 29.7435C19.3977 29.7667 19.2097 29.828 19.0389 29.9239C18.868 30.0198 18.7178 30.1483 18.5966 30.3023C18.4755 30.4562 18.3859 30.6325 18.3329 30.8211C18.2799 31.0097 18.2646 31.2069 18.2878 31.4014L18.4035 32.3661L18.4037 32.368L18.4039 32.3696L18.6653 34.5484C18.6732 34.6154 18.6942 34.6802 18.7271 34.7391C18.7601 34.7979 18.8043 34.8497 18.8573 34.8914C18.9102 34.9332 18.9709 34.964 19.0359 34.9823C19.1008 35.0005 19.1687 35.0058 19.2357 34.9977C19.3026 34.9897 19.3673 34.9685 19.4261 34.9354C19.4849 34.9023 19.5365 34.858 19.5781 34.8049C19.6197 34.7518 19.6504 34.691 19.6685 34.626C19.6866 34.5611 19.6916 34.4932 19.6834 34.4262L19.482 32.7478L27.5426 31.7226L27.7508 33.4583C27.7676 33.5928 27.837 33.7152 27.9438 33.7987C28.0506 33.8822 28.1861 33.92 28.3207 33.9038C28.4553 33.8877 28.578 33.8189 28.662 33.7125C28.746 33.6061 28.7844 33.4708 28.7689 33.3362L28.4988 31.0847V31.0842L28.4987 31.0838L28.3914 30.1891C28.3443 29.8037 28.1489 29.4519 27.8468 29.2081C27.5447 28.9643 27.1595 28.8477 26.7729 28.883C26.7944 28.6789 26.8563 28.4811 26.955 28.3011C27.0538 28.1211 27.1873 27.9626 27.348 27.8349L28.1077 27.2345C28.7811 26.702 29.2926 25.9924 29.5849 25.1852L30.803 21.82C31.1457 20.8694 31.1681 19.8328 30.8669 18.8682ZM26.8538 29.905C26.9765 29.8903 27.1001 29.9247 27.1974 30.0009C27.2948 30.077 27.358 30.1886 27.3733 30.3113L27.4205 30.7045L19.3599 31.7296L19.3059 31.2792C19.2914 31.1564 19.3263 31.0329 19.4029 30.9358C19.4796 30.8388 19.5916 30.7761 19.7144 30.7616L26.3311 29.9677H26.3314L26.8538 29.905ZM29.8389 21.4708L28.6207 24.836C28.3934 25.4639 27.9955 26.0159 27.4717 26.4302L26.7122 27.0305C26.4141 27.2674 26.1723 27.5674 26.0041 27.909C25.836 28.2506 25.7457 28.6252 25.7397 29.0059L20.8372 29.5942L20.6308 27.8478C20.5869 27.477 20.6246 27.101 20.7413 26.7464C20.8581 26.3917 21.051 26.0668 21.3066 25.7946L27.2801 19.4195C27.5021 19.6493 27.6259 19.9565 27.6255 20.2761C27.6258 20.4781 27.5756 20.677 27.4796 20.8547L26.027 23.572C25.9952 23.6314 25.9755 23.6964 25.9689 23.7634C25.9623 23.8304 25.9689 23.8981 25.9885 23.9625C26.008 24.0269 26.0401 24.0869 26.0828 24.1389C26.1255 24.191 26.178 24.2341 26.2374 24.2659C26.2968 24.2976 26.3618 24.3173 26.4288 24.3239C26.4958 24.3305 26.5635 24.3239 26.6279 24.3043C26.6924 24.2848 26.7523 24.2528 26.8044 24.2101C26.8564 24.1673 26.8995 24.1148 26.9313 24.0554L28.3838 21.3384C28.6455 20.85 28.7181 20.2822 28.5875 19.7437C28.457 19.2052 28.1326 18.7336 27.6763 18.4193L26.8426 14.223C26.8239 14.1293 26.8243 14.0327 26.8437 13.9391C26.863 13.8455 26.901 13.7567 26.9553 13.678C27.0096 13.5994 27.0792 13.5324 27.1599 13.4812C27.2406 13.4299 27.3308 13.3954 27.425 13.3797C27.4644 13.3732 27.5043 13.3699 27.5442 13.3697C27.6962 13.3694 27.8443 13.4177 27.9668 13.5077C28.0892 13.5977 28.1796 13.7246 28.2246 13.8698L29.8886 19.1755C30.1229 19.9256 30.1054 20.7316 29.8389 21.4708Z" fill="#1D3278"/>
</g>
<defs>
<clipPath id="clip0_365_11192">
<rect width="35" height="35" fill="white"/>
</clipPath>
</defs>
</svg>
