<svg width="1622" height="1622" viewBox="0 0 1622 1622" fill="none" xmlns="http://www.w3.org/2000/svg">
<circle cx="811" cy="811" r="807" stroke="#1D3278" stroke-width="8"/>
<path d="M120.595 388.113L90.714 399.418L88 404.119L108.179 402.272C108.606 402.234 109.036 402.313 109.421 402.501C109.807 402.689 110.133 402.979 110.366 403.34C110.598 403.7 110.727 404.118 110.739 404.546C110.751 404.975 110.646 405.399 110.434 405.772L110.666 405.906L115.186 408.516L115.418 408.65C115.634 408.274 115.951 407.965 116.332 407.757C116.713 407.55 117.144 407.452 117.577 407.475C118.01 407.497 118.429 407.639 118.787 407.885C119.144 408.131 119.426 408.471 119.603 408.868L128.092 427.266L130.71 422.733L125.657 391.035L120.917 388.299L120.595 388.113Z" fill="#293575"/>
</svg>
