<svg width="208" height="189" viewBox="0 0 208 189" fill="none" xmlns="http://www.w3.org/2000/svg">
<path d="M85.5282 63.6474L74.9354 48.6693H79.8388L102.26 66.9717L129.396 67.3078C128.199 46.5029 110.906 29.9561 89.7578 29.9561C68.6097 29.9561 51.3543 46.4282 50.1191 67.2331L83.769 66.9717C85.5282 66.9717 86.5388 65.0294 85.5282 63.6474Z" fill="#63ACD9"/>
<path d="M102.297 72.2383L79.6892 90.5406H74.9356L85.5283 75.5626C86.539 74.1432 85.5283 72.2383 83.8065 72.2009L50.1567 71.9395C51.3919 92.7444 68.6473 109.217 89.7954 109.217C110.943 109.217 128.236 92.707 129.434 71.8647L102.297 72.2383Z" fill="white"/>
<path d="M49.2208 133.533H35.8207V139.247H47.4615V143.692H35.8207V153.254H30.019V129.05H49.2208V133.533Z" fill="white"/>
<path d="M53.0386 153.292V129.088H58.8403V148.735H71.5666V153.292H53.0386Z" fill="white"/>
<path d="M91.8166 129.088L82.4216 143.057V153.292H76.6199V143.132L66.8506 129.125H73.064L79.6143 138.575L86.0523 129.125H91.8166V129.088Z" fill="white"/>
<path d="M91.2178 156.616C92.191 155.421 92.8647 154.226 93.3139 152.956C93.7256 151.686 93.9502 150.192 93.9502 148.436V129.088H99.7144V148.399C99.677 150.453 99.3027 152.358 98.5541 154.002C97.8055 155.682 96.5703 157.363 94.8485 159.044L91.2178 156.616Z" fill="white"/>
<path d="M110.532 148.959H124.231V153.292H104.805V129.088H124.081V133.421H110.569V138.762H122.397V143.095H110.569V148.959H110.532Z" fill="white"/>
<path d="M134.487 153.292V133.645H125.878V129.088H148.86V133.645H140.251V153.292H134.487Z" fill="white"/>
<path d="M151.069 141.003C150.732 140.704 150.582 140.331 150.582 139.808C150.582 139.285 150.732 138.912 151.069 138.613C151.406 138.314 151.855 138.165 152.416 138.165C152.978 138.165 153.427 138.314 153.764 138.613C154.1 138.912 154.25 139.322 154.25 139.808C154.25 140.294 154.1 140.704 153.764 141.003C153.427 141.302 152.978 141.452 152.416 141.452C151.817 141.414 151.368 141.302 151.069 141.003Z" fill="white"/>
<path d="M164.244 141.302L160.538 136.297H159.153V141.302H156.234V129.088H159.153V133.794H160.538L163.945 129.088H167.051L162.822 134.989L167.463 141.302H164.244Z" fill="white"/>
<path d="M171.393 139.023H177.981V141.302H167.613V139.733L174.088 131.366H167.688V129.088H177.869V130.657L171.393 139.023Z" fill="white"/>
</svg>
