<svg width="30" height="30" viewBox="0 0 30 30" fill="none" xmlns="http://www.w3.org/2000/svg">
<g clip-path="url(#clip0_501_935)">
<path d="M7.60735 29.8938C6.44698 29.8809 5.29751 29.6681 4.20941 29.2647C3.41484 28.971 2.69594 28.5034 2.10529 27.8962C1.4964 27.3067 1.02814 26.5876 0.735294 25.7924C0.33228 24.7043 0.11976 23.5549 0.107059 22.3947C0.0179412 20.4659 0 19.8874 0 15C0 10.1126 0.0197059 9.53618 0.106176 7.60588C0.120418 6.44611 0.333201 5.29734 0.735294 4.20941C1.02957 3.41471 1.49716 2.69553 2.10412 2.10412C2.69404 1.49577 3.41327 1.02795 4.20853 0.735294C5.29663 0.331946 6.44609 0.119126 7.60647 0.106176C9.53588 0.0179412 10.1153 0 15 0C19.8847 0 20.4638 0.0197059 22.3941 0.106176C23.5542 0.120318 24.7033 0.333102 25.7915 0.735294C26.5864 1.02833 27.3054 1.496 27.8956 2.10382C28.5036 2.69419 28.9715 3.41341 29.2647 4.20853C29.6682 5.29661 29.8811 6.44608 29.8941 7.60647C29.9824 9.53677 30.0003 10.1147 30.0003 15.0006C30.0003 19.8865 29.9824 20.4644 29.8941 22.3947C29.8801 23.5549 29.6672 24.7041 29.2647 25.7924C28.9602 26.5815 28.4939 27.2982 27.8957 27.8962C27.2975 28.4943 26.5807 28.9604 25.7915 29.2647C24.7034 29.6681 23.5539 29.8811 22.3935 29.8941C20.465 29.9824 19.8853 30.0003 14.9994 30.0003C10.1135 30.0003 9.53559 29.9832 7.60706 29.8941" fill="url(#paint0_radial_501_935)"/>
<path d="M7.60735 29.8938C6.44698 29.8809 5.29751 29.6681 4.20941 29.2647C3.41484 28.971 2.69594 28.5034 2.10529 27.8962C1.4964 27.3067 1.02814 26.5876 0.735294 25.7924C0.33228 24.7043 0.11976 23.5549 0.107059 22.3947C0.0179412 20.4659 0 19.8874 0 15C0 10.1126 0.0197059 9.53618 0.106176 7.60588C0.120418 6.44611 0.333201 5.29734 0.735294 4.20941C1.02957 3.41471 1.49716 2.69553 2.10412 2.10412C2.69404 1.49577 3.41327 1.02795 4.20853 0.735294C5.29663 0.331946 6.44609 0.119126 7.60647 0.106176C9.53588 0.0179412 10.1153 0 15 0C19.8847 0 20.4638 0.0197059 22.3941 0.106176C23.5542 0.120318 24.7033 0.333102 25.7915 0.735294C26.5864 1.02833 27.3054 1.496 27.8956 2.10382C28.5036 2.69419 28.9715 3.41341 29.2647 4.20853C29.6682 5.29661 29.8811 6.44608 29.8941 7.60647C29.9824 9.53677 30.0003 10.1147 30.0003 15.0006C30.0003 19.8865 29.9824 20.4644 29.8941 22.3947C29.8801 23.5549 29.6672 24.7041 29.2647 25.7924C28.9602 26.5815 28.4939 27.2982 27.8957 27.8962C27.2975 28.4943 26.5807 28.9604 25.7915 29.2647C24.7034 29.6681 23.5539 29.8811 22.3935 29.8941C20.465 29.9824 19.8853 30.0003 14.9994 30.0003C10.1135 30.0003 9.53559 29.9832 7.60706 29.8941" fill="url(#paint1_radial_501_935)"/>
<path d="M11.3168 15.0634C11.3169 14.3286 11.5348 13.6103 11.9431 12.9994C12.3514 12.3885 12.9316 11.9124 13.6105 11.6313C14.2894 11.3502 15.0363 11.2767 15.757 11.4201C16.4776 11.5635 17.1395 11.9174 17.659 12.4371C18.1785 12.9567 18.5323 13.6187 18.6755 14.3394C18.8188 15.06 18.7451 15.807 18.4638 16.4858C18.1826 17.1646 17.7063 17.7447 17.0953 18.1529C16.4843 18.561 15.766 18.7788 15.0312 18.7787C14.046 18.7785 13.1012 18.387 12.4046 17.6902C11.708 16.9935 11.3167 16.0486 11.3168 15.0634ZM9.30829 15.0634C9.30829 16.1952 9.64393 17.3017 10.2728 18.2429C10.9016 19.184 11.7954 19.9175 12.8412 20.3507C13.8869 20.7838 15.0376 20.8972 16.1477 20.6763C17.2579 20.4555 18.2776 19.9105 19.078 19.1101C19.8783 18.3097 20.4234 17.29 20.6442 16.1798C20.865 15.0697 20.7517 13.919 20.3185 12.8733C19.8854 11.8275 19.1519 10.9337 18.2107 10.3049C17.2696 9.67606 16.1631 9.34041 15.0312 9.34041C14.2797 9.34037 13.5355 9.48838 12.8411 9.77597C12.1468 10.0636 11.5158 10.4851 10.9844 11.0165C10.453 11.548 10.0314 12.1789 9.74385 12.8732C9.45626 13.5676 9.30825 14.3118 9.30829 15.0634ZM19.6433 9.11365C19.6432 9.37815 19.7215 9.63675 19.8684 9.85674C20.0152 10.0767 20.224 10.2482 20.4683 10.3496C20.7126 10.4509 20.9815 10.4775 21.241 10.426C21.5004 10.3745 21.7388 10.2473 21.9259 10.0603C22.113 9.87335 22.2405 9.63512 22.2922 9.37572C22.3439 9.11632 22.3175 8.84741 22.2164 8.603C22.1153 8.35858 21.944 8.14965 21.7241 8.0026C21.5043 7.85555 21.2457 7.777 20.9812 7.77689C20.6267 7.77704 20.2867 7.91791 20.036 8.16855C19.7852 8.4192 19.6442 8.75911 19.6439 9.11365M10.5292 24.1354C9.82244 24.1276 9.12232 23.9983 8.45946 23.7531C7.97875 23.5678 7.54216 23.2839 7.17779 22.9197C6.81343 22.5555 6.52936 22.119 6.34387 21.6384C6.09851 20.9755 5.96917 20.2754 5.96152 19.5686C5.90741 18.3939 5.89682 18.041 5.89682 15.0648C5.89682 12.0887 5.90858 11.7366 5.96152 10.5607C5.9701 9.85406 6.09941 9.15407 6.34387 8.491C6.52915 8.01014 6.81313 7.57344 7.17752 7.20905C7.5419 6.84467 7.9786 6.56069 8.45946 6.37541C9.12229 6.13006 9.82243 6.00072 10.5292 5.99306C11.7039 5.93895 12.0568 5.92836 15.0318 5.92836C18.0068 5.92836 18.3601 5.93983 19.5359 5.99336C20.2426 6.00193 20.9426 6.13124 21.6056 6.37571C22.0865 6.561 22.5232 6.84499 22.8876 7.20937C23.252 7.57375 23.5359 8.01044 23.7212 8.4913C23.9666 9.15413 24.0959 9.85427 24.1036 10.561C24.1577 11.7375 24.1683 12.0887 24.1683 15.0651C24.1683 18.0416 24.1574 18.3934 24.1036 19.5692C24.0953 20.2759 23.966 20.976 23.7212 21.6389C23.5357 22.1196 23.2517 22.5561 22.8873 22.9203C22.5229 23.2845 22.0864 23.5684 21.6056 23.7536C20.9428 23.999 20.2427 24.1283 19.5359 24.136C18.3612 24.1901 18.0083 24.2007 15.0318 24.2007C12.0553 24.2007 11.7036 24.1898 10.5292 24.136M10.4368 3.9863C9.51206 4.00448 8.5971 4.17951 7.73093 4.50394C6.99049 4.79023 6.31805 5.22808 5.75671 5.78942C5.19536 6.35076 4.75751 7.02321 4.47123 7.76365C4.14684 8.62983 3.97181 9.54478 3.95358 10.4695C3.89858 11.6578 3.88623 12.0378 3.88623 15.0645C3.88623 18.0913 3.89888 18.471 3.95358 19.6595C3.97181 20.5843 4.14683 21.4992 4.47123 22.3654C4.75753 23.1058 5.19538 23.7783 5.75672 24.3396C6.31806 24.901 6.9905 25.3388 7.73093 25.6251C8.59714 25.9494 9.51208 26.1244 10.4368 26.1428C11.6256 26.1969 12.0051 26.2101 15.0318 26.2101C18.0586 26.2101 18.4383 26.1975 19.6268 26.1428C20.5516 26.1245 21.4665 25.9495 22.3327 25.6251C23.0731 25.3388 23.7456 24.901 24.3069 24.3396C24.8682 23.7783 25.3061 23.1058 25.5924 22.3654C25.9172 21.4994 26.0923 20.5843 26.1101 19.6595C26.1642 18.4704 26.1765 18.0913 26.1765 15.0645C26.1765 12.0378 26.1639 11.6581 26.1101 10.4695C26.0919 9.54478 25.9168 8.62982 25.5924 7.76365C25.3061 7.02335 24.8684 6.35101 24.3072 5.78968C23.746 5.22836 23.0738 4.79042 22.3336 4.50394C21.4675 4.1793 20.5525 4.00427 19.6277 3.9863C18.4392 3.93189 18.0595 3.91895 15.0333 3.91895C12.0071 3.91895 11.6265 3.93159 10.4374 3.9863" fill="white"/>
</g>
<defs>
<radialGradient id="paint0_radial_501_935" cx="0" cy="0" r="1" gradientUnits="userSpaceOnUse" gradientTransform="translate(1.94147 29.3429) scale(38.0888)">
<stop offset="0.09" stop-color="#FA8F21"/>
<stop offset="0.78" stop-color="#D82D7E"/>
</radialGradient>
<radialGradient id="paint1_radial_501_935" cx="0" cy="0" r="1" gradientUnits="userSpaceOnUse" gradientTransform="translate(20.78 28.3794) scale(33.5185)">
<stop offset="0.64" stop-color="#8C3AAA" stop-opacity="0"/>
<stop offset="1" stop-color="#8C3AAA"/>
</radialGradient>
<clipPath id="clip0_501_935">
<rect width="30" height="30" fill="white"/>
</clipPath>
</defs>
</svg>
