<svg width="232" height="106" viewBox="0 0 232 106" fill="none" xmlns="http://www.w3.org/2000/svg">
<g clip-path="url(#clip0_188_1891)">
<mask id="mask0_188_1891" style="mask-type:luminance" maskUnits="userSpaceOnUse" x="0" y="0" width="232" height="106">
<path d="M232 0H0V106H232V0Z" fill="white"/>
</mask>
<g mask="url(#mask0_188_1891)">
<path d="M49.688 48.4914L41.721 37.1926H45.409L62.272 50.9991L82.6821 51.2527C81.7812 35.5584 68.7751 23.0762 52.8692 23.0762C36.9915 23.1043 24.0135 35.5302 23.0845 51.2245L48.3931 51.0273C49.688 51.0273 50.4481 49.5621 49.688 48.4914Z" fill="#63ACD9"/>
</g>
<mask id="mask1_188_1891" style="mask-type:luminance" maskUnits="userSpaceOnUse" x="0" y="0" width="232" height="106">
<path d="M232 0H0V106H232V0Z" fill="white"/>
</mask>
<g mask="url(#mask1_188_1891)">
<path d="M62.3001 55.0007L45.2963 68.8071H41.721L49.688 57.5084C50.4481 56.4377 49.688 55.0007 48.3931 54.9725L23.0845 54.7752C24.0135 70.4696 36.9915 82.8954 52.8974 82.8954C68.8032 82.8954 81.8094 70.4414 82.7103 54.7471L62.3001 55.0007Z" fill="#1D3278"/>
</g>
<mask id="mask2_188_1891" style="mask-type:luminance" maskUnits="userSpaceOnUse" x="0" y="0" width="232" height="106">
<path d="M232 0H0V106H232V0Z" fill="white"/>
</mask>
<g mask="url(#mask2_188_1891)">
<path d="M112.073 47.3647H101.994V51.6476H110.75V55.0287H101.994V62.2419H97.6309V44.0117H112.073V47.3647Z" fill="#1D3278"/>
</g>
<mask id="mask3_188_1891" style="mask-type:luminance" maskUnits="userSpaceOnUse" x="0" y="0" width="232" height="106">
<path d="M232 0H0V106H232V0Z" fill="white"/>
</mask>
<g mask="url(#mask3_188_1891)">
<path d="M114.916 62.2418V43.9834H119.28V58.8324H128.879V62.2418H114.916Z" fill="#1D3278"/>
</g>
<mask id="mask4_188_1891" style="mask-type:luminance" maskUnits="userSpaceOnUse" x="0" y="0" width="232" height="106">
<path d="M232 0H0V106H232V0Z" fill="white"/>
</mask>
<g mask="url(#mask4_188_1891)">
<path d="M144.11 43.9834L137.044 54.5496V62.2418H132.68V54.5778L125.333 43.9834H130.006L134.932 51.1121L139.746 43.9834H144.11Z" fill="#1D3278"/>
</g>
<mask id="mask5_188_1891" style="mask-type:luminance" maskUnits="userSpaceOnUse" x="0" y="0" width="232" height="106">
<path d="M232 0H0V106H232V0Z" fill="white"/>
</mask>
<g mask="url(#mask5_188_1891)">
<path d="M143.659 64.7495C144.391 63.876 144.898 62.9462 145.236 61.9882C145.545 61.0302 145.714 59.9031 145.714 58.5788V43.9834H150.05V58.5506C150.022 60.1004 149.74 61.5374 149.177 62.7771C148.614 64.0451 147.685 65.313 146.39 66.5809L143.659 64.7495Z" fill="#1D3278"/>
</g>
<mask id="mask6_188_1891" style="mask-type:luminance" maskUnits="userSpaceOnUse" x="0" y="0" width="232" height="106">
<path d="M232 0H0V106H232V0Z" fill="white"/>
</mask>
<g mask="url(#mask6_188_1891)">
<path d="M158.186 58.9733H168.461V62.2418H153.85V43.9834H168.348V47.2519H158.186V51.2811H167.053V54.5496H158.186V58.9733Z" fill="#1D3278"/>
</g>
<mask id="mask7_188_1891" style="mask-type:luminance" maskUnits="userSpaceOnUse" x="0" y="0" width="232" height="106">
<path d="M232 0H0V106H232V0Z" fill="white"/>
</mask>
<g mask="url(#mask7_188_1891)">
<path d="M176.203 62.2418V47.4209H169.728V43.9834H187.041V47.4209H180.567V62.2418H176.203Z" fill="#1D3278"/>
</g>
<mask id="mask8_188_1891" style="mask-type:luminance" maskUnits="userSpaceOnUse" x="0" y="0" width="232" height="106">
<path d="M232 0H0V106H232V0Z" fill="white"/>
</mask>
<g mask="url(#mask8_188_1891)">
<path d="M188.646 52.9715C188.393 52.7461 188.28 52.4643 188.28 52.0698C188.28 51.6754 188.393 51.3936 188.646 51.1682C188.9 50.9428 189.237 50.8301 189.66 50.8301C190.082 50.8301 190.42 50.9428 190.673 51.1682C190.927 51.3936 191.039 51.7036 191.039 52.0698C191.039 52.4361 190.927 52.7461 190.673 52.9715C190.42 53.1969 190.082 53.3096 189.66 53.3096C189.237 53.3096 188.9 53.1969 188.646 52.9715Z" fill="#1D3278"/>
</g>
<mask id="mask9_188_1891" style="mask-type:luminance" maskUnits="userSpaceOnUse" x="0" y="0" width="232" height="106">
<path d="M232 0H0V106H232V0Z" fill="white"/>
</mask>
<g mask="url(#mask9_188_1891)">
<path d="M198.584 53.1971L195.797 49.4215H194.783V53.1971H192.559V43.9834H194.783V47.5618H195.797L198.358 43.9834H200.695L197.486 48.4635L201.005 53.1971H198.584Z" fill="#1D3278"/>
</g>
<mask id="mask10_188_1891" style="mask-type:luminance" maskUnits="userSpaceOnUse" x="0" y="0" width="232" height="106">
<path d="M232 0H0V106H232V0Z" fill="white"/>
</mask>
<g mask="url(#mask10_188_1891)">
<path d="M203.961 51.4783H208.887V53.1971H201.117V52.0137L205.987 45.7303H201.173V43.9834H208.831V45.1668L203.961 51.4783Z" fill="#1D3278"/>
</g>
</g>
<defs>
<clipPath id="clip0_188_1891">
<rect width="232" height="106" fill="white"/>
</clipPath>
</defs>
</svg>
