<svg width="40" height="40" viewBox="0 0 40 40" fill="none" xmlns="http://www.w3.org/2000/svg">
<path d="M3.5408 20.073C4.8498 23.163 7.2693 26.563 10.3533 29.6465C15.3338 34.6275 20.6283 37.499 24.2783 37.499C25.6068 37.499 26.7178 37.118 27.5158 36.32L30.9858 32.85C31.1492 32.6875 31.2788 32.4942 31.3671 32.2812C31.4553 32.0683 31.5004 31.84 31.4998 31.6095C31.4998 31.141 31.3173 30.7 30.9858 30.3685L25.4673 24.85C24.8043 24.1865 23.6483 24.187 22.9853 24.85L21.2038 26.631H21.1918C20.5263 26.631 18.2608 25.474 16.3938 23.606C14.5153 21.728 13.3553 19.447 13.3688 18.7965L15.1503 17.015C15.3139 16.8524 15.4436 16.6591 15.5319 16.446C15.6202 16.233 15.6654 16.0046 15.6648 15.774C15.6648 15.305 15.4818 14.8645 15.1503 14.5335L9.6318 9.014C8.9683 8.351 7.8118 8.351 7.1498 9.014L3.6798 12.484C2.1598 14.004 2.1108 16.699 3.5408 20.073ZM5.0938 13.898L8.3908 10.6015L13.5628 15.7735L11.8678 17.469C11.1228 18.2145 11.2213 19.4885 12.1628 21.255C12.8398 22.526 13.8928 23.9335 14.9798 25.02C16.0663 26.1065 17.4738 27.16 18.7448 27.837C20.5118 28.778 21.7848 28.877 22.5308 28.132L24.2258 26.437L29.3983 31.609L26.1018 34.906C24.2888 36.717 17.9568 34.4225 11.7668 28.2325C8.8608 25.3265 6.5933 22.1515 5.3818 19.2925C4.3228 16.7935 4.2153 14.777 5.0938 13.898ZM37.4998 14V5.5C37.4998 3.8455 36.1543 2.5 34.4998 2.5H19.9998C18.3453 2.5 16.9998 3.8455 16.9998 5.5V14C16.9998 15.6545 18.3453 17 19.9998 17H21.6648V20.5C21.6648 20.6933 21.7208 20.8825 21.826 21.0447C21.9313 21.2069 22.0813 21.335 22.2579 21.4137C22.4345 21.4924 22.6301 21.5182 22.821 21.488C23.012 21.4578 23.1901 21.3728 23.3338 21.2435L28.0488 17H34.4998C36.1543 17 37.4998 15.6545 37.4998 14ZM27.6648 15C27.4178 15 27.1798 15.0915 26.9958 15.2565L23.6648 18.255V16C23.6648 15.7348 23.5594 15.4804 23.3719 15.2929C23.1844 15.1054 22.93 15 22.6648 15H19.9998C19.4483 15 18.9998 14.5515 18.9998 14V5.5C18.9998 4.9485 19.4483 4.5 19.9998 4.5H34.4998C35.0513 4.5 35.4998 4.9485 35.4998 5.5V14C35.4998 14.5515 35.0513 15 34.4998 15H27.6648Z" fill="#63ACDA"/>
<path d="M20.8442 8.5H22.7507V10.5H20.8442V8.5ZM26.2972 8.5H28.2037V10.5H26.2972V8.5ZM31.7502 8.5H33.6567V10.5H31.7502V8.5Z" fill="#63ACDA"/>
</svg>
