<svg width="40" height="40" viewBox="0 0 40 40" fill="none" xmlns="http://www.w3.org/2000/svg">
<path d="M3.54105 20.073C4.85005 23.163 7.26955 26.563 10.3535 29.6465C15.334 34.6275 20.6285 37.499 24.2785 37.499C25.607 37.499 26.718 37.118 27.516 36.32L30.986 32.85C31.1495 32.6875 31.2791 32.4942 31.3673 32.2812C31.4555 32.0683 31.5006 31.84 31.5 31.6095C31.5 31.141 31.3175 30.7 30.986 30.3685L25.4675 24.85C24.8045 24.1865 23.6485 24.187 22.9855 24.85L21.204 26.631H21.192C20.5265 26.631 18.261 25.474 16.394 23.606C14.5155 21.728 13.3555 19.447 13.369 18.7965L15.1505 17.015C15.3141 16.8524 15.4438 16.6591 15.5321 16.446C15.6204 16.233 15.6656 16.0046 15.665 15.774C15.665 15.305 15.482 14.8645 15.1505 14.5335L9.63205 9.014C8.96855 8.351 7.81205 8.351 7.15005 9.014L3.68005 12.484C2.16005 14.004 2.11105 16.699 3.54105 20.073ZM5.09405 13.898L8.39105 10.6015L13.563 15.7735L11.868 17.469C11.123 18.2145 11.2215 19.4885 12.163 21.255C12.84 22.526 13.893 23.9335 14.98 25.02C16.0665 26.1065 17.474 27.16 18.745 27.837C20.512 28.778 21.785 28.877 22.531 28.132L24.226 26.437L29.3985 31.609L26.102 34.906C24.289 36.717 17.957 34.4225 11.767 28.2325C8.86105 25.3265 6.59355 22.1515 5.38205 19.2925C4.32305 16.7935 4.21555 14.777 5.09405 13.898ZM37.5 14V5.5C37.5 3.8455 36.1545 2.5 34.5 2.5H20C18.3455 2.5 17 3.8455 17 5.5V14C17 15.6545 18.3455 17 20 17H21.665V20.5C21.665 20.6933 21.721 20.8825 21.8263 21.0447C21.9315 21.2069 22.0815 21.335 22.2581 21.4137C22.4347 21.4924 22.6303 21.5182 22.8213 21.488C23.0122 21.4578 23.1904 21.3728 23.334 21.2435L28.049 17H34.5C36.1545 17 37.5 15.6545 37.5 14ZM27.665 15C27.418 15 27.18 15.0915 26.996 15.2565L23.665 18.255V16C23.665 15.7348 23.5597 15.4804 23.3722 15.2929C23.1846 15.1054 22.9303 15 22.665 15H20C19.4485 15 19 14.5515 19 14V5.5C19 4.9485 19.4485 4.5 20 4.5H34.5C35.0515 4.5 35.5 4.9485 35.5 5.5V14C35.5 14.5515 35.0515 15 34.5 15H27.665Z" fill="#1D3278"/>
<path d="M20.844 8.5H22.7505V10.5H20.844V8.5ZM26.297 8.5H28.2035V10.5H26.297V8.5ZM31.75 8.5H33.6565V10.5H31.75V8.5Z" fill="#1D3278"/>
</svg>
