<svg width="21" height="31" viewBox="0 0 21 31" fill="none" xmlns="http://www.w3.org/2000/svg">
<path d="M20.1897 13.5432L3.63375 0L0 0L7.82503 11.0835C7.99044 11.3183 8.08841 11.594 8.10834 11.8805C8.12828 12.1671 8.06941 12.4536 7.93812 12.7091C7.80683 12.9646 7.60814 13.1792 7.36357 13.3298C7.11899 13.4803 6.83787 13.561 6.5507 13.5631L6.55073 13.7424L6.5507 17.2377V17.417C6.84116 17.4165 7.12609 17.4964 7.3739 17.648C7.62171 17.7995 7.82272 18.0167 7.95467 18.2756C8.08663 18.5344 8.14436 18.8247 8.12147 19.1143C8.09858 19.404 7.996 19.6816 7.82503 19.9165L0 31H3.50432L20.1897 17.4568V13.7922V13.5432Z" fill="white"/>
</svg>
