<svg width="30" height="30" viewBox="0 0 30 30" fill="none" xmlns="http://www.w3.org/2000/svg">
<g clip-path="url(#clip0_501_944)">
<path d="M21.7856 0H8.2144C3.67771 0 0 3.67771 0 8.2144V21.7856C0 26.3223 3.67771 30 8.2144 30H21.7856C26.3223 30 30 26.3223 30 21.7856V8.2144C30 3.67771 26.3223 0 21.7856 0Z" fill="url(#paint0_radial_501_944)"/>
<path d="M14.5739 19.0157L14.1476 19.4322C13.6633 19.8778 13.2274 20.3282 12.7576 20.769C12.5657 20.965 12.3222 21.1027 12.0553 21.1661H11.9972H11.9245C11.9221 21.1436 11.9221 21.1209 11.9245 21.0983C11.9681 20.5026 12.0165 19.902 12.065 19.3014C12.1037 18.7735 12.1473 18.2456 12.1861 17.7128C12.1861 17.5626 12.2103 17.4077 12.2248 17.2575C12.2329 17.2235 12.2515 17.193 12.2781 17.1703L14.4382 15.1942L18.7973 11.2226L19.3785 10.6899C19.4179 10.6531 19.4536 10.6125 19.4851 10.5688C19.5432 10.4864 19.5141 10.4186 19.4173 10.3944C19.367 10.3788 19.3142 10.3733 19.2618 10.3783C19.2094 10.3833 19.1585 10.3987 19.1121 10.4235C19.0329 10.4629 18.9569 10.5082 18.8845 10.5591L10.5829 15.7803C10.4279 15.8771 10.2778 15.9789 10.0986 16.0709C10.0562 16.0853 10.0102 16.0853 9.96779 16.0709L6.24806 14.9424C6.12221 14.9082 5.99915 14.8645 5.87996 14.8116C5.82252 14.7916 5.77085 14.7579 5.72944 14.7133C5.68803 14.6688 5.65814 14.6148 5.64238 14.556C5.62662 14.4973 5.62546 14.4356 5.63901 14.3763C5.65257 14.317 5.68041 14.2619 5.72013 14.2159C5.81704 14.0715 5.95555 13.96 6.11729 13.8962C6.4983 13.7347 6.88093 13.5733 7.26517 13.4119L13.5325 10.9902L21.282 8.00178C21.385 7.96094 21.4922 7.9317 21.6016 7.9146C21.788 7.89383 21.9751 7.94643 22.1234 8.06124C22.2717 8.17605 22.3694 8.34407 22.3959 8.52971C22.4394 8.73734 22.4394 8.95172 22.3959 9.15935C22.0763 10.6656 21.7518 12.1719 21.4273 13.6831L20.3423 18.7008C20.168 19.5242 19.9985 20.3428 19.8144 21.1613C19.7797 21.3289 19.7244 21.4916 19.6497 21.6456C19.6207 21.7246 19.5762 21.7969 19.5189 21.8585C19.4617 21.9201 19.3927 21.9697 19.3161 22.0044C19.2395 22.0391 19.1567 22.0582 19.0727 22.0607C18.9886 22.0631 18.9049 22.0488 18.8264 22.0186C18.624 21.9658 18.4334 21.8754 18.2645 21.7522C17.0537 20.8465 15.8428 19.9456 14.6174 19.0399L14.5739 19.0157Z" fill="url(#paint1_linear_501_944)"/>
</g>
<defs>
<radialGradient id="paint0_radial_501_944" cx="0" cy="0" r="1" gradientUnits="userSpaceOnUse" gradientTransform="translate(14.4333 -12.7284) scale(34.8773)">
<stop stop-color="#6FCEE7"/>
<stop offset="0.2" stop-color="#58B7DB"/>
<stop offset="0.42" stop-color="#48A7D3"/>
<stop offset="0.67" stop-color="#3F9ECE"/>
<stop offset="1" stop-color="#3C9BCC"/>
</radialGradient>
<linearGradient id="paint1_linear_501_944" x1="14.0314" y1="22.067" x2="14.0314" y2="7.92913" gradientUnits="userSpaceOnUse">
<stop offset="0.16" stop-color="#E1F4FD"/>
<stop offset="0.4" stop-color="#F2FAFE"/>
<stop offset="0.67" stop-color="#FCFEFF"/>
<stop offset="1" stop-color="white"/>
</linearGradient>
<clipPath id="clip0_501_944">
<rect width="30" height="30" fill="white"/>
</clipPath>
</defs>
</svg>
