<svg width="30" height="30" viewBox="0 0 30 30" fill="none" xmlns="http://www.w3.org/2000/svg">
<g clip-path="url(#clip0_501_942)">
<path fill-rule="evenodd" clip-rule="evenodd" d="M29.9909 19.6113V10.4258C29.9909 2.03589 28.01 0.0397717 19.6175 0.0397717C-0.905762 -0.0919135 -0.097023 -0.926551 0.0406619 19.5958C0.0406619 27.9858 2.02162 29.9819 10.4141 29.9819H17.3801C26.2968 30.1357 30.2151 29.5227 29.9909 19.6113ZM24.2195 21.405H22.0355C21.2088 21.405 20.9593 20.7342 19.4773 19.2529C18.1825 18.0052 17.6365 17.8492 17.3091 17.8492C16.8565 17.8492 16.7318 17.9739 16.7318 18.5976V20.5625C16.7318 21.0927 16.5603 21.4047 15.1718 21.4047C12.863 21.4047 10.3206 20.001 8.51081 17.4124C5.79659 13.6229 5.06332 10.7533 5.06332 10.1764C5.06332 9.8489 5.18806 9.55237 5.81206 9.55237H7.99607C8.55755 9.55237 8.76028 9.80185 8.97881 10.3788C9.87408 13.3138 12.9407 18.1975 12.9878 15.3847V12.1722C12.8943 10.7063 12.1143 10.5815 12.1143 10.0513C12.1143 9.81732 12.3328 9.55237 12.6758 9.55237H16.1075C16.5755 9.55237 16.7315 9.78637 16.7315 10.3475V14.683C16.7909 15.7226 17.4376 15.3137 18.0888 14.6363C19.6642 12.8897 20.7717 10.1761 20.7717 10.1761C20.9122 9.84858 21.1617 9.55237 21.7232 9.55237H23.9072C24.5625 9.55237 24.7027 9.87985 24.5625 10.3478C24.2972 11.6265 21.6297 15.3693 21.6297 15.385C21.3957 15.7438 21.3022 15.931 21.6297 16.352C22.2585 17.1355 26.84 21.273 24.2195 21.405Z" fill="#345E90"/>
</g>
<defs>
<clipPath id="clip0_501_942">
<rect width="30" height="30" fill="white"/>
</clipPath>
</defs>
</svg>
