<svg width="30" height="30" viewBox="0 0 30 30" fill="none" xmlns="http://www.w3.org/2000/svg">
<g clip-path="url(#clip0_501_947)">
<path d="M29.9984 22.4163C29.9984 22.5805 29.9934 22.9367 29.9835 23.2119C29.9593 23.8852 29.906 24.7541 29.8253 25.15C29.7039 25.7449 29.5208 26.3064 29.282 26.7737C28.9995 27.3266 28.6392 27.8218 28.211 28.2492C27.7837 28.6758 27.2889 29.0347 26.7369 29.3161C26.2671 29.5555 25.7021 29.7387 25.1038 29.8595C24.7118 29.9387 23.8495 29.991 23.1805 30.0148C22.905 30.0247 22.5487 30.0296 22.3851 30.0296L7.61283 30.0272C7.44856 30.0272 7.09237 30.0222 6.81719 30.0123C6.14386 29.9882 5.27503 29.9348 4.87914 29.8541C4.28424 29.7328 3.7227 29.5497 3.25536 29.3109C2.70247 29.0284 2.20727 28.668 1.77985 28.2398C1.35329 27.8125 0.994346 27.3178 0.713008 26.7658C0.473535 26.2959 0.290312 25.7309 0.169521 25.1326C0.0904199 24.7407 0.0380664 23.8784 0.014248 23.2093C0.00446289 22.9339 -0.000488281 22.5776 -0.000488281 22.414L0.00185547 7.64167C0.00185547 7.4774 0.00686523 7.12118 0.0167383 6.846C0.0409082 6.17267 0.0942578 5.30384 0.174971 4.90798C0.296289 4.31308 0.479395 3.75154 0.718193 3.28417C1.0007 2.73131 1.36108 2.23607 1.78926 1.80866C2.21652 1.38213 2.71129 1.02315 3.26333 0.741787C3.73316 0.502373 4.29821 0.31915 4.89648 0.198359C5.28839 0.119229 6.15074 0.066875 6.81977 0.0430859C7.09521 0.0332715 7.45155 0.0283203 7.61515 0.0283203L22.3874 0.0306934C22.5517 0.0306934 22.9079 0.0357031 23.1831 0.0455762C23.8564 0.0697461 24.7252 0.123096 25.1211 0.203809C25.716 0.325127 26.2775 0.508232 26.7449 0.747031C27.2978 1.02954 27.793 1.38992 28.2204 1.8181C28.6469 2.24536 29.0059 2.7401 29.2872 3.29217C29.5267 3.762 29.7099 4.32702 29.8307 4.92529C29.9098 5.31723 29.9622 6.17955 29.986 6.8486C29.9958 7.12405 30.0008 7.48036 30.0008 7.64401L29.9984 22.4163Z" fill="url(#paint0_linear_501_947)"/>
<path d="M22.9484 7.1267C20.9173 5.09388 18.2161 3.9738 15.3382 3.97266C9.40843 3.97266 4.58232 8.79691 4.57995 14.7267C4.57919 16.6222 5.07457 18.4724 6.016 20.1033L4.48975 25.6765L10.1928 24.1809C11.7642 25.0377 13.5333 25.4892 15.3339 25.49H15.3383C21.2675 25.49 26.094 20.6651 26.0964 14.7353C26.0976 11.8616 24.9796 9.15952 22.9484 7.1267ZM15.3383 23.6736H15.3347C13.7302 23.673 12.1564 23.2421 10.7836 22.4276L10.457 22.2339L7.07273 23.1214L7.97607 19.8228L7.76341 19.4846C6.86833 18.0614 6.3956 16.4164 6.3963 14.7274C6.39823 9.79884 10.4095 5.78906 15.3418 5.78906C17.7301 5.78997 19.9752 6.72103 21.6634 8.41061C23.3517 10.1002 24.2809 12.3461 24.28 14.7346C24.2781 19.6636 20.2668 23.6736 15.3383 23.6736ZM20.2431 16.9788C19.9742 16.8443 18.6526 16.1942 18.4062 16.1045C18.1598 16.0148 17.9807 15.97 17.8014 16.2391C17.6222 16.5081 17.1071 17.1134 16.9502 17.2927C16.7934 17.472 16.6366 17.4945 16.3678 17.36C16.099 17.2254 15.2329 16.9417 14.2061 16.0262C13.4071 15.3137 12.8675 14.4336 12.7107 14.1646C12.5539 13.8955 12.6941 13.7501 12.8286 13.6161C12.9495 13.4958 13.0974 13.3023 13.2318 13.1454C13.3662 12.9885 13.4111 12.8763 13.5006 12.697C13.5903 12.5176 13.5454 12.3607 13.4782 12.2262C13.4111 12.0917 12.8734 10.769 12.6494 10.231C12.4313 9.70696 12.2096 9.77786 12.0446 9.76963C11.888 9.76184 11.7086 9.76019 11.5294 9.76019C11.3502 9.76019 11.059 9.82743 10.8126 10.0965C10.5662 10.3655 9.87179 11.0156 9.87179 12.3383C9.87179 13.661 10.835 14.9388 10.9694 15.1181C11.1038 15.2975 12.8649 18.0118 15.5614 19.1758C16.2028 19.4527 16.7035 19.618 17.0939 19.7419C17.7378 19.9463 18.3238 19.9175 18.787 19.8483C19.3035 19.7712 20.3774 19.1983 20.6014 18.5706C20.8255 17.9428 20.8254 17.4048 20.7582 17.2927C20.691 17.1806 20.5119 17.1134 20.2431 16.9788Z" fill="white"/>
</g>
<defs>
<linearGradient id="paint0_linear_501_947" x1="15.0001" y1="0.0283203" x2="15.0001" y2="30.0296" gradientUnits="userSpaceOnUse">
<stop stop-color="#61FD7D"/>
<stop offset="1" stop-color="#2BB826"/>
</linearGradient>
<clipPath id="clip0_501_947">
<rect width="30" height="30" fill="white"/>
</clipPath>
</defs>
</svg>
